<svg width="593" height="390" viewBox="0 0 593 390" fill="none" xmlns="http://www.w3.org/2000/svg">
<g clip-path="url(#clip0)">
<path d="M592.103 185.044C592.103 185.044 592.103 184.956 592.103 184.778C592.103 184.6 592.103 184.333 592.103 184.066C592.103 183.443 592.103 182.554 592.103 181.397C592.103 178.995 592.014 175.615 592.014 171.256L592.192 171.434C580.45 171.434 561.858 171.523 541.042 171.523C541.131 171.434 540.775 171.79 541.309 171.256V171.345V171.434V171.612V172.057V172.946C541.309 173.569 541.309 174.103 541.309 174.726C541.309 175.882 541.309 177.038 541.309 178.195C541.309 180.508 541.309 182.732 541.309 184.956L541.042 184.689C555.631 184.689 568.44 184.778 577.514 184.778C582.051 184.778 585.698 184.867 588.278 184.867C589.523 184.867 590.502 184.867 591.213 184.867C591.569 184.867 591.747 184.867 592.014 184.867C592.014 185.044 592.103 185.044 592.103 185.044C592.103 185.044 592.014 185.044 591.836 185.044C591.658 185.044 591.391 185.044 591.124 185.044C590.413 185.044 589.523 185.044 588.278 185.044C585.787 185.044 582.14 185.044 577.603 185.133C568.44 185.133 555.631 185.222 540.953 185.222H540.686V184.956C540.686 182.732 540.686 180.508 540.686 178.195C540.686 177.038 540.686 175.882 540.686 174.726C540.686 174.103 540.686 173.569 540.686 172.946V172.057V171.612V171.434V171.345V171.256C541.131 170.811 540.775 171.167 540.953 170.989C561.858 170.989 580.45 171.078 592.103 171.078H592.281V171.256C592.281 175.615 592.192 179.084 592.192 181.486C592.192 182.643 592.192 183.532 592.192 184.155C592.192 184.422 592.192 184.689 592.192 184.867C592.103 184.956 592.103 185.044 592.103 185.044Z" fill="#E0E0E0"/>
<path d="M346.227 0.815796H294.988V14.604H346.227V0.815796Z" fill="#EBEBEB" fill-opacity="0.4"/>
<path d="M367.665 28.7481C367.665 28.7481 367.665 28.6591 367.665 28.4812C367.665 28.3033 367.665 28.0364 367.665 27.7696C367.665 27.1469 367.665 26.2573 367.665 25.1009C367.665 22.6991 367.576 19.3187 367.576 14.9599L367.754 15.1378C356.012 15.1378 337.42 15.2267 316.604 15.2267C316.693 15.1378 316.337 15.4936 316.871 14.9599V15.0488V15.1378V15.3157V15.7605V16.65C316.871 17.2727 316.871 17.8065 316.871 18.4292C316.871 19.5856 316.871 20.742 316.871 21.8985C316.871 24.2113 316.871 26.4352 316.871 28.6591L316.604 28.3923C331.193 28.3923 344.003 28.4812 353.076 28.4812C357.613 28.4812 361.26 28.5702 363.84 28.5702C365.086 28.5702 366.064 28.5702 366.776 28.5702C367.132 28.5702 367.309 28.5702 367.576 28.5702C367.576 28.7481 367.665 28.7481 367.665 28.7481C367.665 28.7481 367.576 28.7481 367.398 28.7481C367.221 28.7481 366.954 28.7481 366.687 28.7481C365.975 28.7481 365.086 28.7481 363.84 28.7481C361.349 28.7481 357.702 28.7481 353.165 28.8371C344.003 28.8371 331.193 28.926 316.515 28.926H316.249V28.6591C316.249 26.4352 316.249 24.2113 316.249 21.8985C316.249 20.742 316.249 19.5856 316.249 18.4292C316.249 17.8065 316.249 17.2727 316.249 16.65V15.7605V15.3157V15.1378V15.0488C316.693 14.604 316.337 14.9599 316.515 14.7819C337.42 14.7819 356.012 14.8709 367.665 14.8709H367.843V15.0488C367.843 19.4077 367.754 22.877 367.754 25.2788C367.754 26.4352 367.754 27.3248 367.754 27.9475C367.754 28.2144 367.754 28.4812 367.754 28.6591C367.665 28.6591 367.665 28.7481 367.665 28.7481Z" fill="#E0E0E0"/>
<path d="M89.4993 241.888C89.4993 241.888 89.4993 241.799 89.4993 241.621C89.4993 241.443 89.4993 241.176 89.4993 240.909C89.4993 240.286 89.4993 239.397 89.4993 238.24C89.4993 235.839 89.4104 232.458 89.4104 228.099L89.5883 228.277C77.846 228.277 59.2541 228.366 38.4383 228.366C38.5273 228.277 38.1715 228.633 38.7052 228.099V228.188V228.277V228.455V228.9V229.79C38.7052 230.412 38.7052 230.946 38.7052 231.569C38.7052 232.725 38.7052 233.882 38.7052 235.038C38.7052 237.351 38.7052 239.575 38.7052 241.799L38.4383 241.532C53.0272 241.532 65.8369 241.621 74.9105 241.621C79.4472 241.621 83.0945 241.71 85.6742 241.71C86.9196 241.71 87.8981 241.71 88.6098 241.71C88.9656 241.71 89.1435 241.71 89.4104 241.71C89.4104 241.799 89.4993 241.888 89.4993 241.888C89.4993 241.888 89.4104 241.888 89.2324 241.888C89.0545 241.888 88.7877 241.888 88.5208 241.888C87.8091 241.888 86.9196 241.888 85.6742 241.888C83.1834 241.888 79.5362 241.888 74.9994 241.977C65.8369 241.977 53.0272 242.066 38.3494 242.066H38.0825V241.799C38.0825 239.575 38.0825 237.351 38.0825 235.038C38.0825 233.882 38.0825 232.725 38.0825 231.569C38.0825 230.946 38.0825 230.412 38.0825 229.79V228.9V228.544V228.366V228.277V228.188C38.5273 227.744 38.1715 228.099 38.3494 227.921C59.2541 227.921 77.846 228.01 89.4993 228.01H89.6772V228.188C89.6772 232.547 89.5883 236.016 89.5883 238.418C89.5883 239.575 89.5883 240.464 89.5883 241.087C89.5883 241.354 89.5883 241.621 89.5883 241.799C89.4993 241.799 89.4993 241.888 89.4993 241.888Z" fill="#E0E0E0"/>
<path d="M95.1922 255.676C95.1922 255.676 95.1922 255.587 95.1922 255.409C95.1922 255.231 95.1922 254.964 95.1922 254.697C95.1922 253.986 95.1922 253.096 95.1922 251.94C95.1922 249.538 95.1032 246.069 95.1032 241.888L95.2812 242.066C88.4315 242.066 79.5359 242.066 69.6617 242.154C69.4838 242.332 69.9286 241.888 69.9286 241.888V241.977V242.066V242.332V242.777V243.667C69.9286 244.289 69.9286 244.823 69.9286 245.446C69.9286 246.602 69.9286 247.848 69.9286 249.004C69.9286 251.317 69.9286 253.541 69.9286 255.676L69.7507 255.498C77.223 255.498 83.5389 255.587 88.0757 255.587C90.2996 255.587 92.0787 255.676 93.4131 255.676C94.0358 255.676 94.4806 255.676 94.8364 255.676C95.0143 255.587 95.1922 255.587 95.1922 255.676C95.1922 255.676 95.0143 255.676 94.7474 255.676C94.3916 255.676 93.9468 255.676 93.3241 255.676C92.0787 255.676 90.2996 255.676 88.0757 255.765C83.45 255.765 77.0451 255.854 69.5728 255.854H69.3948V255.676C69.3948 253.541 69.3948 251.317 69.3948 249.004C69.3948 247.848 69.3948 246.691 69.3948 245.446C69.3948 244.823 69.3948 244.289 69.3948 243.667V242.777V242.332V242.066V241.977V241.888C69.3059 241.977 69.8396 241.443 69.6617 241.621C79.4469 241.621 88.4315 241.621 95.2812 241.71H95.4591V241.888C95.4591 246.158 95.3701 249.538 95.3701 252.029C95.3701 253.185 95.3701 254.075 95.3701 254.786C95.3701 255.053 95.3701 255.32 95.3701 255.498C95.2812 255.587 95.2812 255.676 95.1922 255.676Z" fill="#E0E0E0"/>
<path d="M573.244 39.5118C573.244 39.5118 573.244 39.4229 573.244 39.245C573.244 39.067 573.244 38.8002 573.244 38.5333C573.244 37.9106 573.244 37.021 573.244 35.8646C573.244 33.4628 573.155 30.0824 573.155 25.7236L573.333 25.9015C561.591 25.9015 542.999 25.9904 522.183 25.9904C522.272 25.9015 521.916 26.2573 522.45 25.7236V25.8125V25.9015V26.0794V26.6131V27.5027C522.45 28.1254 522.45 28.6591 522.45 29.2818C522.45 30.4383 522.45 31.5947 522.45 32.7511C522.45 35.064 522.45 37.2879 522.45 39.5118L522.183 39.245C536.772 39.245 549.582 39.3339 558.655 39.3339C563.192 39.3339 566.839 39.4229 569.419 39.4229C570.664 39.4229 571.643 39.4229 572.354 39.4229C572.71 39.4229 572.888 39.4229 573.155 39.4229C573.155 39.5118 573.244 39.5118 573.244 39.5118C573.244 39.5118 573.155 39.5118 572.977 39.5118C572.799 39.5118 572.532 39.5118 572.265 39.5118C571.554 39.5118 570.664 39.5118 569.419 39.5118C566.928 39.5118 563.281 39.5118 558.744 39.6008C549.582 39.6008 536.772 39.6897 522.094 39.6897H521.827V39.4229C521.827 37.199 521.827 34.975 521.827 32.6622C521.827 31.5057 521.827 30.3493 521.827 29.1929C521.827 28.5702 521.827 28.0364 521.827 27.4138V26.5242V26.0794V25.9015V25.8125V25.7236C522.272 25.2788 521.916 25.6346 522.094 25.4567C542.999 25.4567 561.591 25.5457 573.244 25.5457H573.422V25.7236C573.422 30.0824 573.333 33.5517 573.333 35.9536C573.333 37.11 573.333 37.9996 573.333 38.6223C573.333 38.8891 573.333 39.156 573.333 39.3339C573.244 39.4229 573.244 39.5118 573.244 39.5118Z" fill="#E0E0E0"/>
<path d="M578.937 53.3001C578.937 53.3001 578.937 53.2111 578.937 53.0332C578.937 52.8553 578.937 52.5884 578.937 52.3215C578.937 51.6099 578.937 50.7203 578.937 49.5639C578.937 47.1621 578.848 43.6928 578.848 39.5118L579.026 39.6897C572.177 39.6897 563.281 39.6897 553.407 39.7787C553.229 39.9566 553.674 39.5118 553.674 39.5118V39.6008V39.6897V39.9566V40.4014V41.291C553.674 41.9136 553.674 42.4474 553.674 43.0701C553.674 44.2265 553.674 45.4719 553.674 46.6283C553.674 48.9412 553.674 51.1651 553.674 53.3001L553.496 53.1222C560.968 53.1222 567.284 53.2111 571.821 53.2111C574.045 53.2111 575.824 53.3001 577.158 53.3001C577.781 53.3001 578.226 53.3001 578.581 53.3001C578.759 53.3001 578.937 53.3001 578.937 53.3001C578.937 53.3001 578.759 53.3001 578.493 53.3001C578.137 53.3001 577.692 53.3001 577.069 53.3001C575.824 53.3001 574.045 53.3001 571.821 53.389C567.195 53.389 560.79 53.478 553.318 53.478H553.14V53.3001C553.14 51.1651 553.14 48.9412 553.14 46.6283C553.14 45.4719 553.14 44.3155 553.14 43.0701C553.14 42.4474 553.14 41.9136 553.14 41.291V40.4014V39.9566V39.6897V39.6008V39.5118C553.051 39.6008 553.585 39.067 553.407 39.245C563.192 39.245 572.177 39.245 579.026 39.3339H579.204V39.5118C579.204 43.7817 579.115 47.1621 579.115 49.6529C579.115 50.8093 579.115 51.6988 579.115 52.4105C579.115 52.6774 579.115 52.9442 579.115 53.1222C578.937 53.2111 578.937 53.3001 578.937 53.3001Z" fill="#E0E0E0"/>
<path d="M54.0055 103.205H2.7666V116.993H54.0055V103.205Z" fill="#EBEBEB" fill-opacity="0.4"/>
<path d="M75.3553 131.137C75.3553 131.137 75.3553 131.048 75.3553 130.87C75.3553 130.692 75.3553 130.425 75.3553 130.158C75.3553 129.536 75.3553 128.646 75.3553 127.49C75.3553 125.088 75.2663 121.708 75.2663 117.349L75.4442 117.527C63.702 117.527 45.1101 117.616 24.2943 117.616C24.3833 117.527 24.0274 117.882 24.5612 117.349V117.438V117.527V117.705V118.149V119.039C24.5612 119.662 24.5612 120.195 24.5612 120.818C24.5612 121.974 24.5612 123.131 24.5612 124.287C24.5612 126.6 24.5612 128.824 24.5612 131.048L24.2943 130.781C38.8832 130.781 51.6929 130.87 60.7664 130.87C65.3032 130.87 68.9504 130.959 71.5301 130.959C72.7755 130.959 73.7541 130.959 74.4657 130.959C74.8215 130.959 74.9995 130.959 75.2663 130.959C75.2663 131.137 75.3553 131.137 75.3553 131.137C75.3553 131.137 75.2663 131.137 75.0884 131.137C74.9105 131.137 74.6436 131.137 74.3768 131.137C73.6651 131.137 72.7755 131.137 71.5301 131.137C69.0394 131.137 65.3922 131.137 60.8554 131.226C51.6929 131.226 38.8832 131.315 24.2053 131.315H23.9385V131.048C23.9385 128.824 23.9385 126.6 23.9385 124.287C23.9385 123.131 23.9385 121.974 23.9385 120.818C23.9385 120.195 23.9385 119.662 23.9385 119.039V118.149V117.705V117.527V117.438V117.349C24.3833 116.904 24.0274 117.26 24.2053 117.082C45.1101 117.082 63.702 117.171 75.3553 117.171H75.5332V117.349C75.5332 121.708 75.4442 125.177 75.4442 127.579C75.4442 128.735 75.4442 129.625 75.4442 130.247C75.4442 130.514 75.4442 130.781 75.4442 130.959C75.3553 131.137 75.3553 131.137 75.3553 131.137Z" fill="#E0E0E0"/>
<path d="M445.859 211.909H394.62V225.698H445.859V211.909Z" fill="#EBEBEB" fill-opacity="0.4"/>
<path d="M467.207 239.842C467.207 239.842 467.207 239.753 467.207 239.575C467.207 239.397 467.207 239.13 467.207 238.863C467.207 238.24 467.207 237.351 467.207 236.194C467.207 233.793 467.118 230.412 467.118 226.053L467.296 226.231C455.554 226.231 436.962 226.32 416.146 226.32C416.235 226.231 415.879 226.587 416.413 226.053V226.142V226.231V226.409V226.854V227.744C416.413 228.366 416.413 228.9 416.413 229.523C416.413 230.679 416.413 231.836 416.413 232.992C416.413 235.305 416.413 237.529 416.413 239.753L416.146 239.486C430.735 239.486 443.545 239.575 452.618 239.575C457.155 239.575 460.802 239.664 463.382 239.664C464.628 239.664 465.606 239.664 466.318 239.664C466.674 239.664 466.851 239.664 467.118 239.664C467.118 239.842 467.207 239.842 467.207 239.842C467.207 239.842 467.118 239.842 466.94 239.842C466.763 239.842 466.496 239.842 466.229 239.842C465.517 239.842 464.628 239.842 463.382 239.842C460.891 239.842 457.244 239.842 452.707 239.931C443.545 239.931 430.735 240.02 416.057 240.02H415.791V239.753C415.791 237.529 415.791 235.305 415.791 232.992C415.791 231.836 415.791 230.679 415.791 229.523C415.791 228.9 415.791 228.366 415.791 227.744V226.854V226.409V226.231V226.142V226.053C416.235 225.609 415.879 225.964 416.057 225.786C436.962 225.786 455.554 225.875 467.207 225.875H467.385V226.053C467.385 230.412 467.296 233.882 467.296 236.283C467.296 237.44 467.296 238.329 467.296 238.952C467.296 239.219 467.296 239.486 467.296 239.664C467.207 239.753 467.207 239.842 467.207 239.842Z" fill="#E0E0E0"/>
<path d="M214.126 291.97C214.126 291.97 214.126 291.881 214.126 291.703C214.126 291.525 214.126 291.258 214.126 290.992C214.126 290.369 214.126 289.479 214.126 288.323C214.126 285.921 214.037 282.541 214.037 278.182L214.215 278.36C202.473 278.36 183.881 278.449 163.065 278.449C163.154 278.36 162.798 278.716 163.332 278.182V278.271V278.36V278.538V278.982V279.872C163.332 280.495 163.332 281.028 163.332 281.651C163.332 282.808 163.332 283.964 163.332 285.12C163.332 287.433 163.332 289.657 163.332 291.881L163.065 291.614C177.654 291.614 190.464 291.703 199.537 291.703C204.074 291.703 207.721 291.792 210.301 291.792C211.547 291.792 212.525 291.792 213.237 291.792C213.593 291.792 213.77 291.792 214.037 291.792C214.037 291.97 214.126 291.97 214.126 291.97C214.126 291.97 214.037 291.97 213.859 291.97C213.681 291.97 213.415 291.97 213.148 291.97C212.436 291.97 211.547 291.97 210.301 291.97C207.81 291.97 204.163 291.97 199.626 292.059C190.464 292.059 177.654 292.148 162.976 292.148H162.709V291.881C162.709 289.657 162.709 287.433 162.709 285.12C162.709 283.964 162.709 282.808 162.709 281.651C162.709 281.028 162.709 280.495 162.709 279.872V278.982V278.538V278.36V278.271V278.182C163.154 277.737 162.798 278.093 162.976 277.915C183.881 277.915 202.473 278.004 214.126 278.004H214.304V278.182C214.304 282.541 214.215 286.01 214.215 288.412C214.215 289.568 214.215 290.458 214.215 291.081C214.215 291.347 214.215 291.614 214.215 291.792C214.126 291.881 214.126 291.97 214.126 291.97Z" fill="#E0E0E0"/>
<path d="M172.674 48.7633C172.674 48.7633 172.674 48.6743 172.674 48.4964C172.674 48.3185 172.674 48.0516 172.674 47.7848C172.674 47.1621 172.674 46.2725 172.674 45.1161C172.674 42.7143 172.585 39.3339 172.585 34.9751L172.763 35.153C161.02 35.153 142.428 35.2419 121.613 35.2419C121.702 35.153 121.346 35.5088 121.88 34.9751V35.064V35.153V35.3309V35.7757V36.6652C121.88 37.2879 121.88 37.8217 121.88 38.4444C121.88 39.6008 121.88 40.7572 121.88 41.9137C121.88 44.2265 121.88 46.4504 121.88 48.6743L121.613 48.4075C136.202 48.4075 149.011 48.4964 158.085 48.4964C162.622 48.4964 166.269 48.5854 168.849 48.5854C170.094 48.5854 171.072 48.5854 171.784 48.5854C172.14 48.5854 172.318 48.5854 172.585 48.5854C172.585 48.7633 172.674 48.7633 172.674 48.7633C172.674 48.7633 172.585 48.7633 172.407 48.7633C172.229 48.7633 171.962 48.7633 171.695 48.7633C170.983 48.7633 170.094 48.7633 168.849 48.7633C166.358 48.7633 162.711 48.7633 158.174 48.8523C149.011 48.8523 136.202 48.9412 121.524 48.9412H121.257V48.6743C121.257 46.4504 121.257 44.2265 121.257 41.9137C121.257 40.7572 121.257 39.6008 121.257 38.4444C121.257 37.8217 121.257 37.2879 121.257 36.6652V35.7757V35.3309V35.153V35.064V34.9751C121.702 34.5303 121.346 34.8861 121.524 34.7082C142.428 34.7082 161.02 34.7971 172.674 34.7971H172.852V34.9751C172.852 39.3339 172.763 42.8032 172.763 45.205C172.763 46.3615 172.763 47.251 172.763 47.8737C172.763 48.1406 172.763 48.4075 172.763 48.5854C172.674 48.6743 172.674 48.7633 172.674 48.7633Z" fill="#E0E0E0"/>
<path d="M418.726 382.972C404.493 371.764 402.269 352.371 403.871 335.114C404.138 332.267 403.96 329.154 405.472 326.752C406.984 324.261 410.276 322.749 412.766 324.083C414.812 325.24 415.613 327.731 416.68 329.865C418.104 332.712 420.328 335.114 423.085 336.715C424.864 337.783 427.088 338.494 428.956 337.605C431.536 336.359 431.981 332.979 432.159 330.043C432.426 324.706 432.693 319.369 432.959 314.031C433.137 311.185 433.226 308.249 434.294 305.58C435.361 302.912 437.496 300.51 440.254 299.887C443.011 299.264 446.303 301.044 446.748 303.89C446.926 305.047 446.57 306.292 446.659 307.448C446.659 308.605 447.103 310.028 448.26 310.384C449.416 310.829 450.573 310.028 451.462 309.228C454.576 306.47 456.8 302.912 458.935 299.264C461.07 295.706 463.027 291.97 465.962 288.946C468.809 285.921 472.723 283.697 476.815 283.697C480.907 283.697 485.177 286.455 485.977 290.547C486.778 294.639 484.198 298.642 481.441 301.755C477.349 306.381 472.634 310.384 467.385 313.675C466.407 314.298 465.428 314.921 464.984 315.988C464.272 317.856 465.962 319.902 467.83 320.614C469.965 321.415 472.278 321.326 474.502 321.77C476.726 322.126 479.128 323.283 479.839 325.418C480.818 328.442 478.238 331.378 475.658 333.246C470.588 336.982 464.895 339.829 458.846 341.697C456.711 342.319 454.398 342.853 452.619 344.276C450.84 345.7 449.683 348.19 450.573 350.236C451.462 352.282 454.042 353.083 456.355 352.816C458.579 352.549 460.625 351.482 462.76 350.77C466.763 349.525 471.833 350.059 474.235 353.617C475.747 355.93 475.747 359.043 474.769 361.712C473.79 364.292 471.922 366.516 469.965 368.562C463.205 375.589 454.754 381.104 445.413 383.773C436.073 386.531 427.622 386.887 418.726 382.972Z" fill="#F5F5F5"/>
<path d="M423.797 372.476C426.821 363.936 431.002 354.773 435.628 345.433C436.784 343.12 437.941 340.807 439.097 338.494C440.254 336.181 441.41 333.957 442.656 331.823C445.146 327.553 447.815 323.639 450.484 319.902C453.152 316.255 455.821 312.875 458.401 309.761C460.892 306.648 463.382 303.712 465.695 301.222C470.321 296.151 474.502 292.504 477.527 290.102C479.039 288.946 480.195 288.056 480.996 287.433C481.352 287.166 481.707 286.9 481.885 286.722C482.063 286.544 482.241 286.544 482.241 286.544C482.241 286.544 482.152 286.633 481.974 286.811C481.707 286.988 481.441 287.255 481.085 287.522C480.284 288.145 479.128 289.034 477.704 290.28C474.769 292.682 470.588 296.418 466.051 301.488C463.738 303.979 461.336 306.915 458.846 310.028C456.355 313.142 453.686 316.522 451.018 320.169C448.349 323.816 445.68 327.731 443.189 332C441.944 334.135 440.876 336.359 439.72 338.672C438.564 340.985 437.407 343.298 436.251 345.611C431.625 354.951 427.533 364.114 424.42 372.653" fill="#E0E0E0"/>
<path d="M442.744 331.734C442.744 331.734 442.655 331.289 442.566 330.488C442.477 329.688 442.388 328.531 442.21 327.108C441.943 324.261 441.766 320.258 441.588 315.81C441.41 311.451 441.143 307.448 440.876 304.602C440.698 303.179 440.609 302.022 440.52 301.222C440.431 300.421 440.431 299.976 440.431 299.976C440.431 299.976 440.609 300.421 440.698 301.222C440.876 302.022 441.054 303.179 441.232 304.602C441.588 307.448 441.943 311.452 442.121 315.899C442.299 320.258 442.477 324.172 442.566 327.197C442.655 328.531 442.655 329.688 442.744 330.577C442.744 331.289 442.744 331.734 442.744 331.734Z" fill="#E0E0E0"/>
<path d="M480.017 327.019C480.017 327.019 479.483 327.108 478.505 327.108C477.526 327.108 476.192 327.197 474.502 327.286C471.121 327.464 466.407 327.819 461.247 328.531C456.088 329.243 451.462 330.043 448.082 330.666C446.391 331.022 445.057 331.289 444.167 331.467C443.278 331.645 442.744 331.734 442.744 331.734C442.744 331.734 443.278 331.556 444.167 331.289C445.057 331.022 446.391 330.666 448.082 330.31C451.373 329.51 456.088 328.62 461.247 327.997C466.407 327.375 471.121 327.019 474.502 326.93C476.192 326.841 477.615 326.93 478.505 326.93C479.483 326.93 480.017 326.93 480.017 327.019Z" fill="#E0E0E0"/>
<path d="M424.242 371.764C424.242 371.764 424.153 371.586 423.975 371.319C423.797 370.963 423.619 370.519 423.441 369.985C422.996 368.828 422.285 367.049 421.573 364.914C420.061 360.555 418.104 354.506 416.058 347.835C414.012 341.163 412.144 335.114 410.72 330.755C410.009 328.62 409.386 326.93 409.03 325.596C408.852 325.062 408.674 324.528 408.585 324.172C408.496 323.816 408.407 323.639 408.496 323.639C408.496 323.639 408.585 323.816 408.763 324.083C408.941 324.439 409.119 324.884 409.297 325.418C409.742 326.574 410.453 328.353 411.165 330.488C412.677 334.847 414.634 340.896 416.68 347.568C418.726 354.24 420.594 360.289 422.018 364.647C422.729 366.782 423.352 368.473 423.708 369.807C423.886 370.341 424.064 370.874 424.153 371.23C424.242 371.586 424.242 371.764 424.242 371.764Z" fill="#E0E0E0"/>
<path d="M474.235 358.865C474.235 358.865 474.057 358.954 473.701 359.043C473.345 359.132 472.811 359.31 472.278 359.399C470.943 359.755 469.164 360.2 466.94 360.822C462.403 361.979 456.177 363.669 449.327 365.626C442.477 367.494 436.25 369.184 431.714 370.252C429.401 370.785 427.622 371.23 426.287 371.497C425.665 371.586 425.22 371.675 424.775 371.764C424.419 371.853 424.241 371.853 424.241 371.853C424.241 371.853 424.419 371.764 424.775 371.675C425.131 371.586 425.664 371.408 426.198 371.319C427.533 370.963 429.312 370.519 431.536 369.896C436.072 368.739 442.299 367.049 449.149 365.092C455.999 363.224 462.226 361.534 466.762 360.467C469.075 359.933 470.854 359.488 472.189 359.221C472.811 359.132 473.256 359.043 473.701 358.954C473.968 358.865 474.146 358.776 474.235 358.865Z" fill="#E0E0E0"/>
<path d="M97.4155 265.906C97.4155 265.906 90.21 268.397 97.5934 283.697C104.888 298.998 110.047 306.648 110.047 306.648C110.047 306.648 111.293 310.206 108.357 310.651C105.422 311.096 98.9278 309.939 97.5045 313.497C96.0812 317.234 98.6609 320.792 104.087 324.083C109.514 327.375 121.167 334.936 122.234 335.559C123.302 336.27 124.28 337.872 122.323 338.494C120.366 339.117 105.688 340.273 106.667 347.212C107.645 354.151 124.28 360.733 126.059 361.445C127.839 362.157 128.283 362.957 128.105 364.025C127.928 365.003 122.946 364.914 118.765 365.448C114.584 365.982 109.869 367.227 110.759 371.23C111.649 375.144 121.345 383.684 145.452 386.709L156.749 387.42L163.154 378.08C175.608 357.264 174.896 344.276 172.317 341.163C169.737 338.049 165.823 340.985 162.887 343.921C159.952 346.856 156.927 350.859 156.038 350.414C155.148 349.97 154.792 349.169 155.326 347.212C155.86 345.344 160.93 328.175 156.038 323.194C151.145 318.212 141.271 329.065 139.492 330.221C137.802 331.378 137.09 329.599 137.179 328.353C137.268 327.108 138.513 313.231 139.314 307.004C140.115 300.688 138.869 296.418 135.044 295.261C131.397 294.194 128.283 300.065 126.148 302.111C123.924 304.157 121.967 300.955 121.967 300.955C121.967 300.955 119.121 292.237 111.56 277.025C103.998 261.814 97.5045 266.084 97.5045 266.084" fill="#EBEBEB" fill-opacity="0.4"/>
<path d="M157.194 390C151.679 378.792 142.16 358.776 133.976 341.608C125.703 324.439 118.32 308.961 112.805 297.752C110.047 292.148 107.823 287.611 106.311 284.498C105.51 282.985 104.977 281.74 104.532 280.851C104.354 280.406 104.176 280.139 104.087 279.872C103.998 279.694 103.909 279.516 103.909 279.516C103.909 279.516 103.998 279.605 104.087 279.783C104.176 279.961 104.354 280.317 104.532 280.673C104.977 281.473 105.599 282.719 106.311 284.231C107.912 287.344 110.136 291.881 112.894 297.485C118.409 308.694 125.881 324.172 134.154 341.341C142.427 358.509 151.857 378.525 157.283 389.733" fill="#E0E0E0"/>
<path d="M106.4 315.543C106.4 315.543 106.667 315.632 107.201 315.81C107.735 315.988 108.446 316.255 109.247 316.611C111.026 317.323 113.339 318.301 116.008 319.458C118.587 320.614 120.9 321.681 122.679 322.482C123.48 322.838 124.192 323.105 124.725 323.372C125.17 323.55 125.437 323.727 125.437 323.727C125.437 323.727 125.17 323.639 124.636 323.461C124.103 323.283 123.391 323.016 122.59 322.66C120.811 321.948 118.498 320.881 115.919 319.724C113.339 318.568 111.026 317.501 109.247 316.789C108.446 316.433 107.735 316.166 107.201 315.899C106.667 315.721 106.4 315.543 106.4 315.543Z" fill="#E0E0E0"/>
<path d="M126.237 323.105C126.148 323.105 128.016 318.034 130.418 311.896C132.82 305.758 134.866 300.777 134.955 300.866C135.044 300.866 133.176 305.936 130.774 312.074C128.283 318.123 126.326 323.105 126.237 323.105Z" fill="#E0E0E0"/>
<path d="M137.625 349.97C137.625 349.97 137.802 349.703 138.069 349.258C138.425 348.813 138.87 348.191 139.493 347.479C140.649 345.967 142.25 343.832 143.94 341.519C145.631 339.117 147.054 336.982 148.121 335.381C148.655 334.669 149.011 333.957 149.367 333.513C149.634 333.068 149.812 332.801 149.812 332.801C149.812 332.801 149.723 333.068 149.456 333.513C149.189 333.957 148.833 334.669 148.299 335.47C147.321 337.071 145.897 339.384 144.207 341.697C142.517 344.099 140.916 346.144 139.671 347.657C139.048 348.368 138.514 348.991 138.158 349.347C137.891 349.792 137.713 349.97 137.625 349.97Z" fill="#E0E0E0"/>
<path d="M118.231 347.123C118.231 347.123 118.498 347.123 119.032 347.123C119.566 347.212 120.277 347.301 121.078 347.301C122.857 347.479 125.259 347.835 127.928 348.191C130.596 348.546 132.998 348.902 134.777 349.169C135.578 349.258 136.29 349.436 136.823 349.525C137.268 349.614 137.535 349.703 137.535 349.703C137.535 349.703 137.268 349.703 136.734 349.703C136.201 349.614 135.489 349.525 134.688 349.525C132.909 349.347 130.507 348.991 127.839 348.635C125.17 348.279 122.768 347.924 120.989 347.657C120.188 347.568 119.477 347.39 118.943 347.301C118.498 347.212 118.231 347.123 118.231 347.123Z" fill="#E0E0E0"/>
<path d="M125.348 372.209C125.348 372.209 125.704 372.209 126.327 372.298C127.038 372.387 127.928 372.476 128.995 372.565C131.219 372.831 134.333 373.187 137.802 373.632C141.271 374.077 144.296 374.433 146.609 374.788C147.676 374.966 148.566 375.055 149.277 375.144C149.9 375.233 150.256 375.322 150.256 375.322C150.256 375.322 149.9 375.322 149.277 375.233C148.566 375.144 147.676 375.055 146.609 374.966C144.385 374.7 141.271 374.344 137.802 373.899C134.333 373.454 131.308 373.098 128.995 372.742C127.928 372.565 127.038 372.476 126.327 372.387C125.704 372.298 125.348 372.209 125.348 372.209Z" fill="#E0E0E0"/>
<path d="M149.633 374.966C149.633 374.966 149.811 374.611 150.256 374.077C150.7 373.454 151.234 372.653 151.946 371.764C153.369 369.807 155.326 367.049 157.372 364.025C159.418 360.911 161.197 358.154 162.531 356.019C163.154 355.04 163.688 354.24 164.044 353.617C164.4 353.083 164.577 352.727 164.666 352.727C164.666 352.727 164.489 353.083 164.222 353.706C163.866 354.328 163.421 355.129 162.798 356.197C161.553 358.332 159.774 361.178 157.728 364.203C155.682 367.316 153.725 369.985 152.213 371.942C151.501 372.92 150.878 373.721 150.433 374.255C149.9 374.699 149.633 375.055 149.633 374.966Z" fill="#E0E0E0"/>
<path d="M94.5684 347.924C90.3874 342.942 89.8537 335.025 90.3874 328.531C91.0101 322.037 92.5224 315.544 91.4549 309.139C90.8322 305.314 89.4089 301.755 88.8752 297.93C88.3414 294.105 89.0531 289.835 92.0776 287.344C95.4579 284.498 100.795 285.209 104.354 287.878C107.912 290.547 109.958 294.728 111.47 298.909C114.761 308.071 116.007 318.212 113.249 327.464C110.581 336.804 104.176 345.166 94.9242 347.924" fill="#E8505B"/>
<path d="M116.898 359.132C117.609 356.73 119.033 354.417 121.346 353.439C123.747 352.371 126.505 352.994 128.907 353.884C131.309 354.773 133.71 355.93 136.29 356.108C138.87 356.286 141.805 355.04 142.606 352.549C143.318 350.237 141.894 347.746 140.204 346.056C136.557 342.497 130.953 340.985 126.06 342.23C121.079 343.387 116.809 347.301 115.208 352.105" fill="#E8505B"/>
<g opacity="0.3">
<g opacity="0.3">
<path opacity="0.3" d="M116.898 359.132C117.609 356.73 119.033 354.417 121.346 353.439C123.747 352.371 126.505 352.994 128.907 353.884C131.309 354.773 133.71 355.93 136.29 356.108C138.87 356.286 141.805 355.04 142.606 352.549C143.318 350.237 141.894 347.746 140.204 346.056C136.557 342.497 130.953 340.985 126.06 342.23C121.079 343.387 116.809 347.301 115.208 352.105" fill="black"/>
</g>
</g>
<path d="M96.348 369.54C92.5229 365.982 92.7898 359.666 94.6578 354.773C96.5259 349.881 100.707 346.145 105.244 343.654C114.139 338.85 125.348 338.494 134.599 342.675C130.062 342.853 125.704 345.433 123.302 349.258C121.256 352.727 120.722 356.908 119.032 360.555C117.164 364.647 113.606 367.85 109.425 369.54C105.333 371.23 100.529 371.23 96.348 369.54Z" fill="#E8505B"/>
<path d="M92.5234 388.577C92.5234 388.577 92.5234 388.399 92.5234 388.043C92.5234 387.687 92.5234 387.153 92.5234 386.442C92.6124 385.018 92.7014 382.972 93.0572 380.482C93.413 377.991 93.8578 374.966 94.6584 371.675C95.459 368.384 96.7933 364.914 98.6614 361.445C102.487 354.595 107.824 349.703 112.094 346.945C113.161 346.234 114.14 345.7 115.029 345.166C115.919 344.721 116.72 344.276 117.342 344.01C117.965 343.743 118.499 343.565 118.855 343.387C119.21 343.209 119.388 343.209 119.388 343.209C119.388 343.209 119.21 343.298 118.855 343.476C118.499 343.654 117.965 343.921 117.342 344.188C116.72 344.543 115.919 344.899 115.029 345.433C114.14 345.967 113.161 346.5 112.183 347.301C108.002 350.148 102.753 354.951 98.9283 361.712C95.1032 368.473 94.0357 375.5 93.2351 380.482C92.8793 382.972 92.7014 385.018 92.6124 386.442C92.6124 387.153 92.5234 387.687 92.5234 388.043C92.6124 388.31 92.6124 388.577 92.5234 388.577Z" fill="#263238"/>
<path d="M56.051 334.224C48.3118 338.939 48.3118 343.209 49.6462 347.212C50.9805 351.215 55.6952 354.062 59.6982 352.549C61.9221 351.66 63.5233 349.792 64.9467 347.835C66.37 345.878 67.6153 343.832 69.5724 342.408C71.5294 340.985 74.2871 340.451 76.2441 341.875" fill="#E8505B"/>
<g opacity="0.3">
<g opacity="0.3">
<path opacity="0.3" d="M56.051 334.224C48.3118 338.939 48.3118 343.209 49.6462 347.212C50.9805 351.215 55.6952 354.062 59.6982 352.549C61.9221 351.66 63.5233 349.792 64.9467 347.835C66.37 345.878 67.6153 343.832 69.5724 342.408C71.5294 340.985 74.2871 340.451 76.2441 341.875" fill="black"/>
</g>
</g>
<path d="M50.2686 339.295C52.3146 336.448 57.2961 335.648 60.4985 337.071C63.701 338.494 66.0138 341.252 68.0598 344.01C70.1058 346.767 72.1518 349.703 74.9984 351.66C77.845 353.617 81.8481 354.329 84.7836 352.371C86.6517 351.126 87.7192 348.902 88.075 346.589C88.4308 344.365 88.075 342.053 87.6302 339.829C86.9186 336.537 85.8511 333.157 83.1824 331.111C80.2469 328.798 76.2438 328.709 72.5076 328.798C68.2377 328.976 63.9678 329.243 59.9648 330.755C56.0507 332.267 51.9587 335.381 50.2686 339.295Z" fill="#E8505B"/>
<path d="M85.8511 388.132C85.8511 388.132 85.8511 387.865 85.7622 387.42C85.7622 386.976 85.6732 386.264 85.6732 385.463C85.5843 383.773 85.5843 381.371 85.4953 378.347C85.4063 375.322 85.2284 371.764 85.0505 367.85C84.7837 363.936 84.5168 359.577 83.8941 355.04C83.6272 352.816 83.2714 350.592 82.6487 348.546C82.026 346.5 81.2254 344.632 80.2469 342.853C78.4677 339.384 76.1549 336.537 74.0199 334.58C71.796 332.534 69.75 331.289 68.2378 330.577C67.5261 330.221 66.9034 329.954 66.4586 329.777C66.0139 329.599 65.8359 329.51 65.8359 329.51C65.8359 329.51 66.1028 329.599 66.4586 329.688C66.9034 329.777 67.5261 330.043 68.2378 330.399C69.75 331.111 71.885 332.267 74.1978 334.313C76.4217 336.359 78.7346 339.117 80.6027 342.675C81.4923 344.454 82.3818 346.322 83.0045 348.457C83.6272 350.503 83.983 352.727 84.3389 355.04C84.9616 359.577 85.2284 363.936 85.4063 367.85C85.5843 371.764 85.6732 375.411 85.7622 378.347C85.8511 381.371 85.8511 383.773 85.8511 385.463C85.8511 386.264 85.8511 386.887 85.8511 387.42C85.8511 387.954 85.8511 388.132 85.8511 388.132Z" fill="#263238"/>
<path d="M89.3213 388.132C89.3213 388.132 89.3213 388.043 89.2323 387.954C89.1433 387.776 89.1433 387.598 89.0544 387.331C88.8765 386.798 88.6986 385.908 88.4317 384.752C87.9869 382.528 87.6311 379.236 87.809 375.144C87.9869 371.052 88.6096 366.249 90.1219 361.089C91.6341 355.93 93.858 350.414 95.8151 344.543C97.7721 338.672 98.9285 332.89 99.4623 327.553C99.9071 322.215 99.9071 317.412 99.8181 313.32C99.7292 309.228 99.4623 306.025 99.3733 303.712C99.2844 302.645 99.2844 301.755 99.1954 301.133C99.1954 300.866 99.1954 300.599 99.1954 300.421C99.1954 300.243 99.1954 300.154 99.1954 300.154C99.1954 300.154 99.1954 300.243 99.1954 300.421C99.1954 300.599 99.1954 300.866 99.2844 301.133C99.3733 301.755 99.3733 302.645 99.5512 303.712C99.7291 305.936 99.996 309.228 100.174 313.32C100.352 317.412 100.441 322.215 99.9071 327.642C99.4623 332.979 98.3058 338.85 96.2599 344.721C94.3028 350.592 92.0789 356.108 90.4777 361.178C88.9654 366.338 88.2538 371.141 88.0759 375.144C87.8979 379.147 88.1648 382.439 88.5206 384.663C88.6986 385.819 88.8765 386.62 89.0544 387.242C89.1433 387.509 89.1433 387.687 89.2323 387.865C89.3213 388.043 89.3213 388.132 89.3213 388.132Z" fill="#263238"/>
<path d="M274.082 246.513H266.343V388.31H274.082V246.513Z" fill="#E0E0E0"/>
<path d="M277.997 241.621C277.997 245.891 274.527 249.36 270.257 249.36C265.987 249.36 262.518 245.891 262.518 241.621C262.518 237.351 265.987 233.882 270.257 233.882C274.527 233.882 277.997 237.351 277.997 241.621Z" fill="#E8505B"/>
<path d="M427.265 246.513H419.526V388.31H427.265V246.513Z" fill="#E0E0E0"/>
<path d="M431.18 241.621C431.18 245.891 427.71 249.36 423.44 249.36C419.17 249.36 415.701 245.891 415.701 241.621C415.701 237.351 419.17 233.882 423.44 233.882C427.71 233.882 431.18 237.351 431.18 241.621Z" fill="#E8505B"/>
<path d="M441.854 260.124H244.282V295.439H441.854V260.124Z" fill="#E8505B"/>
<path d="M266.61 260.124L266.343 260.746L245.972 295.528H244.282V260.124H266.61Z" fill="#F5F5F5"/>
<path d="M316.604 260.124L295.966 295.528H268.923L277.107 281.473L289.561 260.124H316.604Z" fill="#F5F5F5"/>
<path d="M366.508 260.124L345.87 295.528H318.828L339.554 260.124H366.508Z" fill="#F5F5F5"/>
<path d="M416.413 260.124L395.775 295.528H368.732L389.459 260.124H416.413Z" fill="#F5F5F5"/>
<path d="M441.854 260.124V295.528H418.725L439.363 260.124H441.854Z" fill="#F5F5F5"/>
<path d="M441.854 314.743H244.282V350.059H441.854V314.743Z" fill="#E8505B"/>
<path d="M266.61 314.743L266.343 315.366L245.972 350.148H244.282V314.743H266.61Z" fill="#F5F5F5"/>
<path d="M316.604 314.743L295.966 350.148H268.923L277.107 336.092L289.561 314.743H316.604Z" fill="#F5F5F5"/>
<path d="M366.508 314.743L345.87 350.148H318.828L339.554 314.743H366.508Z" fill="#F5F5F5"/>
<path d="M416.413 314.743L395.775 350.148H368.732L389.459 314.743H416.413Z" fill="#F5F5F5"/>
<path d="M441.854 314.743V350.148H418.725L439.363 314.743H441.854Z" fill="#F5F5F5"/>
<path d="M441.855 295.528C441.855 295.528 441.855 295.35 441.855 294.906C441.855 294.461 441.855 293.927 441.855 293.126C441.855 291.525 441.855 289.212 441.766 286.277C441.766 280.228 441.677 271.421 441.677 260.213L441.855 260.391C401.38 260.391 327.991 260.479 244.283 260.568L244.638 260.213C244.638 272.311 244.638 284.231 244.638 295.528L244.283 295.172C300.236 295.261 349.607 295.261 384.923 295.35C402.625 295.439 416.858 295.439 426.643 295.439C431.536 295.439 435.361 295.439 437.941 295.528C439.186 295.528 440.165 295.528 440.876 295.528C441.499 295.528 441.855 295.528 441.855 295.528C441.855 295.528 441.499 295.528 440.876 295.528C440.165 295.528 439.275 295.528 438.03 295.528C435.45 295.528 431.714 295.528 426.821 295.617C417.036 295.617 402.892 295.706 385.19 295.706C349.785 295.706 300.325 295.795 244.283 295.884H243.927V295.528C243.927 284.142 243.927 272.311 243.927 260.213V259.857H244.283C327.991 259.946 401.38 260.035 441.855 260.035H442.033V260.213C441.944 271.51 441.944 280.406 441.944 286.455C441.944 289.39 441.944 291.703 441.855 293.304C441.855 294.016 441.855 294.639 441.855 294.995C441.855 295.35 441.855 295.528 441.855 295.528Z" fill="#263238"/>
<path d="M441.855 350.148C441.855 350.148 441.855 349.97 441.855 349.525C441.855 349.08 441.855 348.546 441.855 347.746C441.855 346.144 441.855 343.832 441.766 340.896C441.766 334.847 441.677 326.04 441.677 314.832L441.855 315.01C401.38 315.01 327.991 315.099 244.283 315.188L244.638 314.832C244.638 326.93 244.638 338.85 244.638 350.148L244.283 349.792C300.236 349.881 349.607 349.881 384.923 349.97C402.625 350.059 416.858 350.059 426.643 350.059C431.536 350.059 435.361 350.059 437.941 350.148C439.186 350.148 440.165 350.148 440.876 350.148C441.499 350.148 441.855 350.148 441.855 350.148C441.855 350.148 441.499 350.148 440.876 350.148C440.165 350.148 439.275 350.148 438.03 350.148C435.45 350.148 431.714 350.148 426.821 350.236C417.036 350.236 402.892 350.325 385.19 350.325C349.785 350.325 300.325 350.414 244.283 350.503H243.927V350.148C243.927 338.761 243.927 326.93 243.927 314.832V314.476H244.283C327.991 314.565 401.38 314.654 441.855 314.654H442.033V314.832C441.944 326.129 441.944 335.025 441.944 341.074C441.944 344.01 441.944 346.322 441.855 347.924C441.855 348.635 441.855 349.258 441.855 349.614C441.855 349.97 441.855 350.148 441.855 350.148Z" fill="#263238"/>
<path d="M486.867 388.221C486.867 388.31 377.984 388.399 243.838 388.399C109.514 388.488 0.720215 388.399 0.720215 388.221C0.720215 388.132 109.514 388.043 243.838 388.043C378.073 388.043 486.867 388.132 486.867 388.221Z" fill="#263238"/>
<path d="M131.575 172.235H123.479V388.221H131.575V172.235Z" fill="#E0E0E0"/>
<path d="M131.575 388.221C131.575 388.221 131.575 387.865 131.575 387.064C131.575 386.353 131.575 385.196 131.575 383.773C131.575 380.926 131.575 376.657 131.575 371.23C131.575 360.378 131.575 344.632 131.486 325.151C131.486 286.188 131.397 232.191 131.397 172.235L131.664 172.502C129.085 172.502 126.327 172.502 123.569 172.502L123.836 172.235C123.747 276.314 123.658 363.758 123.658 388.221L123.569 388.132C126.327 388.132 128.373 388.132 129.707 388.132C130.953 388.221 131.575 388.221 131.575 388.221C131.575 388.221 130.953 388.221 129.618 388.221C128.284 388.221 126.238 388.221 123.48 388.221H123.391V388.132C123.391 363.669 123.302 276.225 123.213 172.146V171.879H123.48C126.238 171.879 128.996 171.879 131.575 171.879H131.842V172.146C131.842 232.191 131.753 286.277 131.753 325.24C131.753 344.721 131.664 360.466 131.664 371.319C131.664 376.745 131.664 380.926 131.664 383.773C131.664 385.196 131.664 386.264 131.664 386.975C131.575 387.865 131.575 388.221 131.575 388.221Z" fill="#263238"/>
<path d="M146.718 177.135C170.459 166.56 181.132 138.741 170.557 114.999C159.982 91.2581 132.163 80.5848 108.422 91.1599C84.6807 101.735 74.0074 129.554 84.5824 153.295C95.1575 177.036 122.976 187.71 146.718 177.135Z" fill="#E8505B"/>
<path d="M169.915 132.382C169.915 132.382 169.915 132.115 169.826 131.671C169.826 131.137 169.737 130.514 169.648 129.625C169.648 129.18 169.559 128.646 169.559 128.112C169.47 127.579 169.381 126.956 169.292 126.333C169.115 125.088 168.848 123.576 168.403 121.974C167.691 118.683 166.09 114.858 163.688 110.766C161.286 106.674 157.728 102.404 152.924 98.8457C148.121 95.2875 142.161 92.263 135.222 91.0176C128.372 89.8611 120.544 90.0391 113.161 92.8857C111.293 93.5084 109.514 94.3979 107.646 95.2875C106.756 95.7323 105.867 96.355 105.066 96.8887C104.176 97.4224 103.376 98.0451 102.575 98.6678C100.885 99.8243 99.3727 101.337 97.7715 102.76C96.3482 104.361 94.8359 105.873 93.6795 107.652C91.1887 111.122 88.9648 114.947 87.7194 119.217C86.3851 123.398 85.5845 127.934 85.5845 132.471C85.6734 137.008 86.3851 141.545 87.7194 145.726C89.0538 149.996 91.1887 153.821 93.6795 157.29C94.9249 159.069 96.3482 160.581 97.7715 162.183C99.3727 163.606 100.796 165.029 102.575 166.275C103.376 166.897 104.176 167.52 105.066 168.054C105.955 168.588 106.756 169.121 107.646 169.655C109.425 170.545 111.204 171.434 113.161 172.057C120.544 174.903 128.372 175.081 135.222 173.925C142.161 172.68 148.21 169.655 152.924 166.097C157.728 162.45 161.197 158.269 163.688 154.177C166.09 150.085 167.602 146.259 168.403 142.968C168.937 141.367 169.115 139.855 169.292 138.609C169.381 137.987 169.47 137.364 169.559 136.83C169.559 136.296 169.648 135.763 169.648 135.318C169.737 134.428 169.737 133.806 169.826 133.272C169.915 132.649 169.915 132.382 169.915 132.382C169.915 132.382 169.915 132.649 169.915 133.094C169.915 133.628 169.915 134.25 169.826 135.14C169.826 135.585 169.826 136.118 169.737 136.652C169.648 137.186 169.559 137.809 169.47 138.431C169.292 139.677 169.115 141.189 168.67 142.879C167.958 146.171 166.446 150.085 164.044 154.266C161.642 158.447 158.084 162.716 153.28 166.453C148.477 170.1 142.428 173.213 135.311 174.459C128.284 175.704 120.366 175.526 112.894 172.68C110.937 172.057 109.158 171.167 107.29 170.278C106.4 169.833 105.511 169.21 104.621 168.676C103.732 168.143 102.842 167.52 102.041 166.897C100.262 165.741 98.75 164.229 97.1488 162.805C95.7255 161.204 94.2132 159.692 92.9679 157.824C90.3881 154.266 88.1642 150.351 86.8299 145.993C85.4066 141.723 84.6949 137.097 84.606 132.471C84.6949 127.846 85.4066 123.309 86.8299 118.95C88.1642 114.591 90.3881 110.677 92.9679 107.208C94.2132 105.429 95.7255 103.827 97.1488 102.226C98.75 100.803 100.262 99.2905 102.041 98.1341C102.842 97.5114 103.732 96.8887 104.621 96.355C105.511 95.8212 106.4 95.2875 107.29 94.7537C109.158 93.8642 110.937 92.8857 112.894 92.3519C120.455 89.5053 128.373 89.3274 135.311 90.5728C142.339 91.8182 148.477 94.9317 153.28 98.5789C158.084 102.226 161.642 106.585 164.044 110.766C166.446 114.947 167.958 118.861 168.67 122.152C169.115 123.754 169.292 125.266 169.47 126.6C169.559 127.223 169.648 127.846 169.737 128.379C169.737 128.913 169.737 129.447 169.826 129.892C169.826 130.781 169.915 131.404 169.915 131.938C169.915 132.204 169.915 132.382 169.915 132.382Z" fill="white"/>
<path d="M152.035 127.045H103.021V137.275H152.035V127.045Z" fill="#FAFAFA"/>
<path d="M425.166 13.5581L241.287 30.6745L258.404 214.554L442.283 197.437L425.166 13.5581Z" fill="#FFF3F4"/>
<path d="M442.211 197.409C442.211 197.409 442.211 197.143 442.122 196.52C442.033 195.986 441.944 195.097 441.855 193.94C441.677 191.716 441.321 188.425 440.877 184.066C440.076 175.437 438.831 162.805 437.318 146.704C434.294 114.502 429.935 68.6006 424.776 13.5366L425.042 13.8034C371.58 18.785 308.51 24.6561 241.17 30.972L241.436 30.6162C247.663 97.9562 253.535 161.026 258.516 214.489L258.249 214.222C313.402 209.152 359.304 204.882 391.506 201.946C407.607 200.434 420.239 199.278 428.868 198.566C433.226 198.21 436.518 197.854 438.742 197.676C439.898 197.587 440.699 197.498 441.321 197.498C441.944 197.409 442.211 197.409 442.211 197.409C442.211 197.409 441.944 197.409 441.41 197.498C440.877 197.587 439.987 197.676 438.92 197.765C436.696 197.943 433.404 198.299 429.134 198.744C420.506 199.544 407.874 200.79 391.773 202.302C359.571 205.327 313.58 209.685 258.427 214.845H258.16V214.578C253.179 161.115 247.308 98.0451 240.992 30.7051V30.4383H241.259C308.599 24.2113 371.669 18.3402 425.131 13.3586H425.398V13.6255C430.469 68.7785 434.739 114.769 437.674 146.971C439.098 163.072 440.254 175.704 441.055 184.333C441.41 188.603 441.766 191.894 441.944 194.118C442.033 195.186 442.122 196.075 442.122 196.609C442.211 197.143 442.211 197.409 442.211 197.409Z" fill="#263238"/>
<path d="M257.41 18.0938L249.35 18.8442L251.172 38.419L259.233 37.6686L257.41 18.0938Z" fill="#E0E0E0"/>
<path d="M274.494 202.15L266.434 202.9L268.256 222.475L276.316 221.725L274.494 202.15Z" fill="#E0E0E0"/>
<path d="M418.419 3.06234L410.358 3.81257L412.18 23.3874L420.241 22.6372L418.419 3.06234Z" fill="#E0E0E0"/>
<path d="M435.679 188.358L427.619 189.108L429.441 208.683L437.501 207.933L435.679 188.358Z" fill="#E0E0E0"/>
<path d="M369.88 102.959C383.856 85.575 381.093 60.1524 363.709 46.1763C346.324 32.2002 320.902 34.963 306.926 52.3473C292.95 69.7316 295.712 95.1542 313.097 109.13C330.481 123.106 355.904 120.344 369.88 102.959Z" fill="#FFF3F4"/>
<path d="M338.31 118.683C317.406 118.683 299.525 102.76 297.568 81.4992C295.433 58.9933 312.068 38.9781 334.574 36.9321C357.08 34.7971 377.095 51.432 379.141 73.9379C381.276 96.4439 364.641 116.459 342.135 118.505C340.89 118.594 339.645 118.683 338.31 118.683ZM338.399 37.8217C337.154 37.8217 335.909 37.9106 334.663 37.9996C312.869 40.0456 296.679 59.527 298.725 81.4103C299.703 91.9961 304.774 101.603 312.958 108.364C321.142 115.125 331.461 118.327 342.047 117.349C363.93 115.303 380.031 95.9102 377.985 74.0269C376.117 53.389 358.681 37.8217 338.399 37.8217Z" fill="#E8505B"/>
<path d="M357.169 73.0484C356.279 71.4472 353.7 71.3582 352.632 72.7815C352.009 73.5821 351.743 74.5606 351.387 75.5392C350.586 77.941 349.874 80.4318 349.163 82.9225C349.074 83.1894 348.807 83.3673 348.54 83.6342C348.362 83.3673 348.095 83.1005 348.095 82.8336C347.917 81.4103 347.739 79.987 347.651 78.6526C347.384 75.895 347.206 73.1373 346.939 70.3797C346.494 65.754 346.049 61.1282 345.605 56.4135C345.516 55.8798 345.338 55.3461 344.982 54.9902C344.27 54.1007 342.936 53.9228 341.868 54.4565C340.979 54.9013 340.356 55.8798 340.445 57.0362C340.89 61.9288 341.335 66.9104 341.779 71.803C341.779 72.0699 341.868 72.2478 341.779 72.5146C341.69 72.6926 341.513 72.9594 341.335 72.9594C341.157 72.9594 340.89 72.7815 340.801 72.6036C340.712 72.4257 340.712 72.1588 340.712 71.8919C340.178 66.1987 339.644 60.4166 339.111 54.7234C339.111 54.3675 339.022 54.0117 339.022 53.6559C338.844 52.5884 338.221 52.1436 337.243 51.9657C335.108 51.6099 333.684 52.9442 333.951 55.0792C334.485 60.6834 335.019 66.3767 335.552 71.9809C335.552 72.3367 335.641 72.6926 335.641 72.9594C335.641 73.1373 335.375 73.4042 335.286 73.4042C335.108 73.4042 334.841 73.2263 334.752 73.0484C334.663 72.7815 334.663 72.4257 334.574 72.1588C334.129 67.622 333.773 63.0853 333.329 58.6374C333.151 57.0362 332.083 56.2356 330.482 56.4135C328.881 56.5914 327.991 57.6589 328.169 59.1712C328.614 63.9748 329.059 68.7785 329.503 73.5821C329.503 73.849 329.592 74.2048 329.592 74.3827C329.503 74.6496 329.326 74.8275 329.148 75.0944C328.97 74.9165 328.614 74.6496 328.525 74.4717C328.347 72.6926 328.169 71.0024 328.08 69.2233C327.902 67.3552 327.724 65.4871 327.546 63.708C327.368 62.2847 326.212 61.3951 324.611 61.573C323.276 61.7509 322.476 62.7294 322.565 64.1527C322.832 67.8 323.01 71.3582 323.276 75.0054C323.454 77.2293 323.632 79.4532 323.81 81.5882C324.077 86.036 324.789 90.3059 326.746 94.3979C328.525 98.223 331.549 100.625 335.641 101.425C340.089 102.226 344.359 101.337 348.184 98.9347C350.764 97.3335 352.721 95.0206 353.522 92.085C354.945 86.4808 356.368 80.8765 357.703 75.2723C357.525 74.4717 357.436 73.5821 357.169 73.0484Z" fill="#E8505B"/>
<path d="M299.436 179.084L299.525 180.419L291.875 181.13L290.896 170.545L298.369 169.833L298.458 171.167L292.498 171.701L292.765 174.903L298.102 174.37L298.191 175.615L292.854 176.149L293.209 179.529L299.436 179.084Z" fill="#263238"/>
<path d="M305.308 171.79L305.397 173.213C305.308 173.213 305.13 173.213 305.041 173.213C303.528 173.391 302.639 174.37 302.728 176.149L303.084 180.152L301.66 180.33L300.949 172.324L302.372 172.235L302.461 173.569C302.995 172.413 303.884 171.879 305.308 171.79Z" fill="#263238"/>
<path d="M311.445 171.167L311.534 172.591C311.445 172.591 311.267 172.591 311.178 172.591C309.666 172.769 308.777 173.747 308.866 175.526L309.221 179.529L307.798 179.707L307.086 171.701L308.51 171.612L308.599 172.946C309.043 171.879 310.022 171.345 311.445 171.167Z" fill="#263238"/>
<path d="M312.78 175.17C312.602 172.768 314.203 170.9 316.605 170.722C319.007 170.456 320.875 172.057 321.142 174.37C321.319 176.772 319.807 178.64 317.405 178.818C314.915 179.084 312.957 177.572 312.78 175.17ZM319.629 174.548C319.451 172.857 318.206 171.879 316.694 171.968C315.181 172.146 314.114 173.302 314.292 174.992C314.47 176.683 315.715 177.75 317.227 177.572C318.74 177.483 319.718 176.238 319.629 174.548Z" fill="#263238"/>
<path d="M327.013 169.744L327.102 171.167C327.013 171.167 326.835 171.167 326.746 171.167C325.234 171.345 324.344 172.324 324.433 174.103L324.789 178.106L323.366 178.284L322.654 170.278L324.078 170.189L324.167 171.523C324.611 170.456 325.59 169.833 327.013 169.744Z" fill="#263238"/>
<path d="M334.573 167.876L334.929 171.523L340.267 170.989L340.356 172.324L335.018 172.857L335.374 177.127L333.862 177.305L332.883 166.719L340.356 166.008L340.445 167.342L334.573 167.876Z" fill="#263238"/>
<path d="M341.868 172.413C341.69 170.011 343.291 168.143 345.693 167.965C348.095 167.698 349.963 169.299 350.23 171.612C350.497 174.014 348.896 175.882 346.494 176.06C344.003 176.416 342.135 174.814 341.868 172.413ZM348.718 171.79C348.54 170.1 347.294 169.121 345.782 169.21C344.27 169.388 343.202 170.545 343.38 172.235C343.558 173.925 344.804 174.992 346.316 174.814C347.828 174.726 348.896 173.48 348.718 171.79Z" fill="#263238"/>
<path d="M356.102 166.986L356.191 168.41C356.102 168.41 355.924 168.41 355.835 168.41C354.323 168.588 353.433 169.566 353.522 171.345L353.878 175.348L352.455 175.526L351.743 167.52L353.166 167.431L353.255 168.765C353.789 167.698 354.768 167.164 356.102 166.986Z" fill="#263238"/>
<path d="M366.598 170.189C366.865 172.591 365.264 174.459 362.951 174.637C361.795 174.726 360.727 174.37 360.016 173.569L360.105 174.814L358.681 174.903L357.614 163.695L359.037 163.517L359.482 167.965C360.105 167.075 360.994 166.542 362.151 166.453C364.463 166.275 366.331 167.698 366.598 170.189ZM365.086 170.278C364.908 168.588 363.663 167.609 362.151 167.698C360.638 167.876 359.571 169.032 359.749 170.722C359.927 172.413 361.172 173.48 362.684 173.302C364.197 173.213 365.264 171.968 365.086 170.278Z" fill="#263238"/>
<path d="M367.755 163.517C367.666 162.983 368.111 162.539 368.645 162.45C369.178 162.361 369.623 162.805 369.712 163.25C369.801 163.784 369.356 164.229 368.823 164.318C368.2 164.407 367.755 164.051 367.755 163.517ZM368.2 166.008L369.623 165.83L370.335 173.836L368.911 174.014L368.2 166.008Z" fill="#263238"/>
<path d="M379.675 161.649L380.742 172.857L379.319 172.946L379.23 171.701C378.696 172.68 377.718 173.213 376.472 173.302C374.16 173.48 372.292 172.057 372.025 169.566C371.758 167.164 373.359 165.296 375.672 165.118C376.828 165.029 377.807 165.385 378.607 166.097L378.163 161.649H379.675ZM378.874 169.032C378.696 167.342 377.451 166.364 375.939 166.453C374.426 166.63 373.359 167.787 373.537 169.477C373.715 171.167 374.96 172.235 376.472 172.057C377.985 171.968 379.052 170.722 378.874 169.032Z" fill="#263238"/>
<path d="M389.905 160.759L390.972 171.968L389.549 172.057L389.46 170.811C388.926 171.79 387.948 172.324 386.702 172.413C384.39 172.591 382.521 171.167 382.255 168.676C381.988 166.275 383.589 164.407 385.902 164.229C387.058 164.14 388.037 164.496 388.837 165.207L388.393 160.759H389.905ZM389.193 168.054C389.015 166.364 387.77 165.385 386.258 165.474C384.745 165.652 383.678 166.808 383.856 168.499C384.034 170.189 385.279 171.256 386.791 171.078C388.304 170.989 389.371 169.744 389.193 168.054Z" fill="#263238"/>
<path d="M400.579 167.431L394.086 168.054C394.352 169.477 395.598 170.278 397.199 170.1C398.178 170.011 398.889 169.655 399.423 168.943L400.312 169.833C399.69 170.722 398.622 171.345 397.288 171.434C394.708 171.701 392.84 170.1 392.573 167.787C392.395 165.385 393.908 163.517 396.22 163.339C398.533 163.161 400.312 164.673 400.579 167.075C400.579 167.164 400.579 167.342 400.579 167.431ZM393.997 167.075L399.156 166.63C398.889 165.296 397.822 164.407 396.398 164.584C394.975 164.673 393.997 165.652 393.997 167.075Z" fill="#263238"/>
<path d="M410.098 165.474L410.543 170.1L409.119 170.278L408.674 165.83C408.497 164.229 407.696 163.606 406.273 163.695C404.76 163.873 403.782 164.851 403.96 166.63L404.316 170.722L402.892 170.9L402.181 162.894L403.604 162.805L403.693 164.051C404.227 163.161 405.205 162.627 406.451 162.538C408.408 162.183 409.92 163.161 410.098 165.474Z" fill="#263238"/>
<path d="M327.191 152.931L321.231 153.465L321.942 161.115L315.893 161.649L315.182 153.999L296.768 155.689L296.323 151.33L310.912 128.112L317.583 127.49L303.884 149.64L314.915 148.572L314.292 141.812L320.163 141.278L320.786 148.039L326.746 147.505L327.191 152.931Z" fill="#263238"/>
<path d="M328.969 143.502C327.902 132.471 333.417 125.622 341.423 124.91C349.429 124.198 356.101 129.803 357.08 140.922C358.147 151.953 352.632 158.802 344.626 159.514C336.62 160.315 329.948 154.621 328.969 143.502ZM350.764 141.545C349.963 133.45 346.494 129.98 341.868 130.425C337.331 130.87 334.485 134.873 335.196 143.057C335.997 151.152 339.466 154.621 344.003 154.177C348.718 153.643 351.475 149.64 350.764 141.545Z" fill="#263238"/>
<path d="M385.28 145.103C385.813 150.796 381.988 156.045 372.915 156.934C368.2 157.379 363.307 156.401 359.927 154.177L362.151 149.106C364.731 150.885 368.556 151.864 372.292 151.508C376.74 151.063 379.23 148.839 378.964 145.726C378.697 142.701 376.295 140.922 371.224 141.367L368.111 141.634L367.755 137.364L374.516 127.579L359.215 129.002L358.771 123.754L381.721 121.619L382.077 125.8L374.783 136.296C381.276 136.563 384.835 140.033 385.28 145.103Z" fill="#263238"/>
</g>
<defs>
<clipPath id="clip0">
<rect width="591.56" height="389.184" fill="white" transform="translate(0.720215 0.815796)"/>
</clipPath>
</defs>
</svg>
