<svg width="777" height="466" viewBox="0 0 777 466" fill="none" xmlns="http://www.w3.org/2000/svg">
<g clip-path="url(#clip0)">
<path d="M776.667 465.997H0L57.7564 440.905H718.91L776.667 465.997Z" fill="url(#paint0_linear)"/>
<path d="M156.97 442.982H82.292L115.984 319.082C116.204 318.283 116.679 317.578 117.338 317.075C117.997 316.572 118.802 316.299 119.631 316.297C120.461 316.298 121.267 316.571 121.926 317.074C122.586 317.577 123.061 318.283 123.281 319.082L156.97 442.982Z" fill="url(#paint1_linear)"/>
<path d="M145.678 341.703H92.3351V358.638H145.678V341.703Z" fill="white"/>
<path d="M145.678 374.632H92.3351V391.567H145.678V374.632Z" fill="white"/>
<path d="M156.612 407.557H81.3948V424.492H156.612V407.557Z" fill="white"/>
<path d="M173.287 439.507H64.7205V454.595H173.287V439.507Z" fill="url(#paint2_linear)"/>
<path d="M495.015 431.743H325.719L341.991 370.472H478.758L495.015 431.743Z" fill="url(#paint3_linear)"/>
<path style="mix-blend-mode:multiply" d="M495.015 431.743H325.719L341.991 370.472H478.758L495.015 431.743Z" fill="url(#paint4_linear)"/>
<path d="M536.117 434.493H284.643L292.076 417.477H528.672L536.117 434.493Z" fill="url(#paint5_linear)"/>
<path d="M655.726 379.567H164.023C160.381 379.561 156.891 378.111 154.318 375.536C151.745 372.96 150.299 369.47 150.298 365.831L151.222 13.7359C151.247 10.0909 152.711 6.60306 155.295 4.03078C157.879 1.45851 161.375 0.00989958 165.022 0H656.723C660.365 0.00617335 663.855 1.45599 666.428 4.03123C669.001 6.60647 670.446 10.0967 670.447 13.7359L669.523 365.831C669.499 369.475 668.035 372.963 665.452 375.535C662.868 378.107 659.373 379.556 655.726 379.567Z" fill="#4E5683"/>
<path d="M656.111 379.567H164.41C160.769 379.561 157.278 378.111 154.705 375.536C152.132 372.96 150.687 369.47 150.686 365.831L150.838 307.817H670.062L669.911 365.831C669.886 369.476 668.423 372.964 665.838 375.536C663.254 378.108 659.758 379.557 656.111 379.567Z" fill="url(#paint6_linear)"/>
<path style="mix-blend-mode:overlay" opacity="0.7" d="M656.111 380.374H164.41C160.769 380.367 157.279 378.917 154.706 376.342C152.133 373.767 150.688 370.277 150.686 366.638L150.838 308.623H670.062L669.911 366.638C669.886 370.283 668.423 373.771 665.838 376.343C663.254 378.915 659.758 380.364 656.111 380.374Z" fill="url(#paint7_radial)"/>
<path d="M168.451 291.17L169.168 18.0389H652.295L651.578 291.17H168.451Z" fill="white"/>
<path d="M269.505 296.015H81.7737C82.0636 289.047 84.5078 282.339 88.7699 276.817C92.1209 272.072 96.5287 268.169 101.646 265.415C106.763 262.662 112.45 261.134 118.259 260.951C136.411 260.529 155.251 273.204 171.605 265.321C178.601 261.947 183.396 255.416 189.072 250.134C194.747 244.853 202.717 240.521 210.031 243.113C219.359 246.408 222.642 260.45 231.25 265.333C238.366 269.368 252.343 261.968 265.887 269.184C268.126 270.515 270.035 272.334 271.471 274.506C272.907 276.678 273.834 279.146 274.182 281.726C274.53 284.306 274.29 286.931 273.48 289.406C272.67 291.88 271.311 294.139 269.505 296.015Z" fill="url(#paint8_linear)"/>
<path d="M176.522 303.709C178.144 304.578 179.906 305.152 181.729 305.404H394.098C393.831 298.936 391.566 292.709 387.615 287.578C384.503 283.174 380.41 279.551 375.659 276.995C370.908 274.439 365.629 273.02 360.236 272.849C343.381 272.458 325.888 284.228 310.706 276.898C304.223 273.766 299.76 267.704 294.49 262.798C289.219 257.892 281.818 253.884 275.029 256.281C266.365 259.34 263.66 270.847 255.667 275.369C249.061 279.118 240.739 277.117 233.699 274.256C226.659 271.395 219.488 267.727 211.923 268.429C207.983 268.861 204.259 270.449 201.221 272.992C198.183 275.536 195.966 278.921 194.849 282.722C192.759 290.328 170.127 299.068 176.522 303.709Z" fill="url(#paint9_linear)"/>
<path d="M716.38 290.841C716.38 290.841 702.708 266.918 700.478 264.45C686.413 248.89 667.754 248.718 648.762 252.648C643.264 253.787 628.715 261.426 623.436 260.369C619.322 259.547 614.399 243.929 601.226 244.751C588.052 245.572 587.271 261.19 587.271 261.19C587.271 261.19 579.016 243.043 565.854 244.719C552.693 246.394 552.693 258.644 562.563 267.733C548.789 264.197 534.223 265.413 521.227 271.185C500.868 280.927 510.593 293.702 510.593 293.702L716.38 290.841Z" fill="url(#paint10_linear)"/>
<path d="M718.566 295.948H353.949C353.949 295.948 393.433 278.684 427.365 279.925C461.296 281.166 496.452 282.882 532.246 279.861C568.04 276.84 585.922 260.811 630.96 268.208C675.997 275.605 675.997 284.231 688.952 284.231C701.907 284.231 718.566 295.948 718.566 295.948Z" fill="url(#paint11_linear)"/>
<path d="M340.373 295.948H139.247C139.247 295.948 162.075 281.07 189.22 281.111C216.366 281.152 212.666 287.424 240.43 284.997C268.193 282.57 272.51 271.287 303.357 278.069C316.835 281.31 329.458 287.407 340.373 295.948Z" fill="url(#paint12_linear)"/>
<path d="M159.971 271.666C154.858 266.131 147.042 261.409 140.11 264.348C135.003 266.516 132.199 272.173 127.368 274.903C120.049 279.045 110.91 275.325 102.523 275.952C93.195 276.648 81.7912 295.7 81.7912 295.7H196.703C196.703 295.7 183.387 289.583 175.829 286.541C169.031 283.806 164.757 276.831 159.971 271.666Z" fill="url(#paint13_linear)"/>
<path d="M474.137 303.406H352.357C352.542 298.886 354.125 294.535 356.887 290.952C359.061 287.874 361.92 285.342 365.239 283.556C368.559 281.77 372.248 280.778 376.016 280.659C387.793 280.385 400.016 288.61 410.621 283.488C415.153 281.3 418.27 277.064 421.951 273.635C425.633 270.207 430.805 267.407 435.55 269.082C441.605 271.22 443.733 280.327 449.315 283.497C453.93 286.119 462.999 281.315 471.788 285.996C473.241 286.86 474.479 288.04 475.412 289.449C476.344 290.858 476.946 292.46 477.172 294.134C477.398 295.808 477.242 297.511 476.717 299.117C476.191 300.723 475.309 302.189 474.137 303.406Z" fill="url(#paint14_linear)"/>
<path d="M632.117 443.047L184.688 443.032L232.833 411.01H584.006L632.152 443.032C632.152 443.032 632.149 443.047 632.117 443.047Z" fill="url(#paint15_linear)"/>
<path d="M632.117 443.047L184.688 443.032V456.398H632.117L632.152 443.032C632.152 443.032 632.149 443.047 632.117 443.047Z" fill="url(#paint16_linear)"/>
<path style="mix-blend-mode:multiply" d="M632.117 443.047L184.688 443.032V456.398H632.117L632.152 443.032C632.152 443.032 632.149 443.047 632.117 443.047Z" fill="url(#paint17_linear)"/>
<g style="mix-blend-mode:overlay" opacity="0.7">
<path style="mix-blend-mode:overlay" opacity="0.7" d="M257.191 416.329H242.438C241.485 416.329 241.109 416.038 241.599 415.68L243.214 414.514C243.998 414.089 244.878 413.872 245.77 413.885H260.226C261.162 413.885 261.576 414.176 261.15 414.514L259.713 415.68C258.949 416.126 258.076 416.351 257.191 416.329Z" fill="url(#paint18_linear)"/>
<path style="mix-blend-mode:overlay" opacity="0.7" d="M280.932 416.329H266.181C265.225 416.329 264.794 416.038 265.217 415.68L266.601 414.514C267.337 414.079 268.181 413.861 269.035 413.885H283.491C284.427 413.885 284.896 414.176 284.538 414.511L283.328 415.677C282.615 416.135 281.779 416.363 280.932 416.329Z" fill="url(#paint19_linear)"/>
<path style="mix-blend-mode:overlay" opacity="0.7" d="M304.66 416.329H289.907C288.954 416.329 288.467 416.038 288.817 415.68L289.983 414.514C290.669 414.068 291.477 413.847 292.295 413.885H306.75C307.686 413.885 308.208 414.176 307.917 414.514L306.934 415.68C306.273 416.151 305.471 416.38 304.66 416.329Z" fill="url(#paint20_linear)"/>
<path style="mix-blend-mode:overlay" opacity="0.7" d="M328.415 416.329H313.665C312.709 416.329 312.167 416.038 312.447 415.68L313.377 414.514C314.01 414.055 314.785 413.832 315.566 413.885H330.022C330.957 413.885 331.534 414.176 331.313 414.514L330.561 415.68C329.956 416.163 329.187 416.396 328.415 416.329Z" fill="url(#paint21_linear)"/>
<path style="mix-blend-mode:overlay" opacity="0.7" d="M352.159 416.329H337.406C336.452 416.329 335.852 416.038 336.065 415.68L336.764 414.514C337.344 414.041 338.086 413.815 338.831 413.885H353.287C354.223 413.885 354.855 414.176 354.701 414.514L354.176 415.68C354.016 416.038 353.112 416.326 352.159 416.329Z" fill="url(#paint22_linear)"/>
<path style="mix-blend-mode:overlay" opacity="0.7" d="M375.899 416.326H361.149C360.193 416.326 359.537 416.035 359.691 415.677L360.163 414.511C360.303 414.165 361.172 413.882 362.108 413.882H376.564C377.499 413.882 378.187 414.173 378.1 414.511L377.808 415.677C377.701 416.038 376.855 416.326 375.899 416.326Z" fill="url(#paint23_linear)"/>
<path style="mix-blend-mode:overlay" opacity="0.7" d="M399.642 416.329H384.889C383.936 416.329 383.222 416.038 383.295 415.68L383.539 414.514C383.609 414.168 384.414 413.885 385.361 413.885H399.817C400.753 413.885 401.496 414.176 401.476 414.514L401.409 415.68C401.389 416.038 400.596 416.329 399.642 416.329Z" fill="url(#paint24_linear)"/>
<path style="mix-blend-mode:overlay" opacity="0.7" d="M423.383 416.326H408.633C407.676 416.326 406.907 416.035 406.913 415.677L406.927 414.511C406.927 414.165 407.694 413.885 408.627 413.885H423.083C424.018 413.885 424.832 414.176 424.864 414.514L425.024 415.68C425.073 416.038 424.339 416.326 423.383 416.326Z" fill="url(#paint25_linear)"/>
<path style="mix-blend-mode:overlay" opacity="0.7" d="M447.126 416.329H432.373C431.42 416.329 430.592 416.038 430.528 415.68L430.315 414.514C430.251 414.168 430.959 413.885 431.895 413.885H446.333C447.269 413.885 448.12 414.176 448.237 414.514L448.624 415.68C448.759 416.038 448.082 416.329 447.126 416.329Z" fill="url(#paint26_linear)"/>
<path style="mix-blend-mode:overlay" opacity="0.7" d="M470.866 416.329H456.116C455.16 416.329 454.277 416.038 454.143 415.68L453.702 414.514C453.571 414.168 454.224 413.885 455.16 413.885H469.613C470.549 413.885 471.455 414.176 471.639 414.514L472.257 415.68C472.443 416.038 471.823 416.329 470.866 416.329Z" fill="url(#paint27_linear)"/>
<path style="mix-blend-mode:overlay" opacity="0.7" d="M494.61 416.329H479.857C479.482 416.366 479.103 416.328 478.743 416.217C478.383 416.106 478.049 415.924 477.761 415.682L477.09 414.517C476.889 414.17 477.489 413.891 478.425 413.891H492.878C493.647 413.833 494.411 414.056 495.027 414.52L495.872 415.685C496.129 416.038 495.563 416.329 494.61 416.329Z" fill="url(#paint28_linear)"/>
<path style="mix-blend-mode:overlay" opacity="0.7" d="M518.35 416.329H503.6C502.805 416.385 502.016 416.156 501.376 415.682L500.478 414.517C500.21 414.171 500.769 413.888 501.69 413.888H516.146C516.951 413.845 517.747 414.066 518.414 414.517L519.487 415.682C519.813 416.038 519.306 416.329 518.35 416.329Z" fill="url(#paint29_linear)"/>
<path style="mix-blend-mode:overlay" opacity="0.7" d="M547.527 416.326H527.343C526.51 416.366 525.685 416.138 524.991 415.677L523.863 414.511C523.53 414.165 524.02 413.885 524.956 413.885H544.734C545.584 413.857 546.425 414.074 547.154 414.511L548.51 415.677C548.921 416.035 548.483 416.326 547.527 416.326Z" fill="url(#paint30_linear)"/>
<path style="mix-blend-mode:overlay" opacity="0.7" d="M576.832 416.329H556.523C555.644 416.353 554.776 416.128 554.019 415.68L552.611 414.514C552.194 414.168 552.611 413.885 553.552 413.888H573.46C574.355 413.876 575.239 414.091 576.028 414.514L577.666 415.68C578.156 416.038 577.788 416.329 576.832 416.329Z" fill="url(#paint31_linear)"/>
<path style="mix-blend-mode:overlay" opacity="0.7" d="M228.02 439.88H210.425C209.285 439.88 208.929 439.466 209.626 438.962L216.118 434.234C217.071 433.679 218.154 433.385 219.257 433.383H236.069C237.156 433.383 237.573 433.762 236.999 434.234L231.201 438.962C230.249 439.564 229.146 439.882 228.02 439.88Z" fill="url(#paint32_linear)"/>
<path style="mix-blend-mode:overlay" opacity="0.7" d="M256.343 439.88H238.745C237.605 439.88 237.171 439.466 237.768 438.962L243.342 434.234C244.228 433.666 245.262 433.37 246.315 433.383H263.126C264.214 433.383 264.706 433.762 264.22 434.234L259.351 438.962C258.472 439.58 257.418 439.902 256.343 439.88Z" fill="url(#paint33_linear)"/>
<path style="mix-blend-mode:overlay" opacity="0.7" d="M284.663 439.88H267.056C265.916 439.88 265.4 439.466 265.89 438.962L270.554 434.234C271.372 433.651 272.358 433.352 273.361 433.383H290.173C291.26 433.383 291.825 433.762 291.432 434.234L287.482 438.962C286.682 439.594 285.682 439.92 284.663 439.88Z" fill="url(#paint34_linear)"/>
<path style="mix-blend-mode:overlay" opacity="0.7" d="M312.983 439.88H295.388C294.248 439.88 293.639 439.466 294.053 438.962L297.79 434.234C298.535 433.635 299.476 433.332 300.431 433.383H317.242C318.329 433.383 318.968 433.762 318.667 434.234L315.636 438.962C315.278 439.286 314.859 439.534 314.403 439.691C313.947 439.849 313.464 439.913 312.983 439.88Z" fill="url(#paint35_linear)"/>
<path style="mix-blend-mode:overlay" opacity="0.7" d="M425.502 439.88H324.483C322.92 439.88 321.833 439.589 322.052 439.21L325.156 434.001C326.092 433.486 327.164 433.271 328.226 433.383H424.747C426.24 433.383 427.487 433.675 427.534 434.001L428.245 439.21C428.292 439.58 427.064 439.88 425.502 439.88Z" fill="url(#paint36_linear)"/>
<path style="mix-blend-mode:overlay" opacity="0.7" d="M454.592 439.88H437.005C435.868 439.88 434.868 439.466 434.778 438.962L433.903 434.234C433.819 433.762 434.632 433.383 435.719 433.383H452.531C453.618 433.383 454.627 433.762 454.784 434.234L456.349 438.962C456.515 439.466 455.731 439.88 454.592 439.88Z" fill="url(#paint37_linear)"/>
<path style="mix-blend-mode:overlay" opacity="0.7" d="M482.912 439.88H465.316C464.176 439.88 463.098 439.466 462.908 438.962L461.127 434.234C460.949 433.762 461.69 433.383 462.777 433.383H479.588C480.029 433.342 480.473 433.396 480.89 433.543C481.308 433.69 481.688 433.926 482.005 434.234L484.492 438.962C484.757 439.466 484.051 439.88 482.912 439.88Z" fill="url(#paint38_linear)"/>
<path style="mix-blend-mode:overlay" opacity="0.7" d="M511.234 439.88H493.636C493.165 439.918 492.691 439.855 492.245 439.697C491.8 439.539 491.393 439.289 491.05 438.962L488.351 434.234C488.083 433.762 488.748 433.383 489.835 433.383H506.646C507.584 433.324 508.51 433.629 509.229 434.234L512.634 438.962C512.998 439.466 512.371 439.88 511.234 439.88Z" fill="url(#paint39_linear)"/>
<path style="mix-blend-mode:overlay" opacity="0.7" d="M575.908 439.88H556.141C555.074 439.905 554.028 439.583 553.159 438.962L552.41 438.211C551.911 437.712 552.41 437.31 553.535 437.31H572.955C574.045 437.299 575.114 437.613 576.025 438.211L576.899 438.962C577.488 439.466 577.048 439.88 575.908 439.88Z" fill="url(#paint40_linear)"/>
<path style="mix-blend-mode:overlay" opacity="0.7" d="M607.059 439.88H587.292C586.166 439.885 585.063 439.566 584.114 438.962L583.202 438.211C582.598 437.712 583.018 437.31 584.138 437.31H603.555C604.704 437.317 605.83 437.628 606.82 438.211L607.852 438.962C608.551 439.466 608.199 439.88 607.059 439.88Z" fill="url(#paint41_linear)"/>
<path style="mix-blend-mode:overlay" opacity="0.7" d="M544.758 439.88H524.991C523.981 439.928 522.989 439.6 522.207 438.959L521.624 438.211C521.23 437.712 521.822 437.31 522.941 437.31H542.359C543.393 437.279 544.407 437.596 545.239 438.211L545.953 438.962C546.428 439.466 545.898 439.88 544.758 439.88Z" fill="url(#paint42_linear)"/>
<path style="mix-blend-mode:overlay" opacity="0.7" d="M571.23 435.813H552.016C550.989 435.84 549.981 435.533 549.142 434.939L548.431 434.231C547.962 433.759 548.463 433.381 549.553 433.381H568.437C569.486 433.366 570.515 433.662 571.396 434.231L572.221 434.939C572.777 435.408 572.337 435.813 571.23 435.813Z" fill="url(#paint43_linear)"/>
<path style="mix-blend-mode:overlay" opacity="0.7" d="M251.201 421.162H235.865C234.871 421.162 234.497 420.851 235.028 420.463L238.395 418.013C239.208 417.565 240.123 417.336 241.051 417.349H255.918C256.879 417.349 257.296 417.64 256.844 418.013L253.845 420.463C253.046 420.938 252.13 421.18 251.201 421.162Z" fill="url(#paint44_linear)"/>
<path style="mix-blend-mode:overlay" opacity="0.7" d="M275.886 421.162H260.549C259.555 421.162 259.121 420.848 259.576 420.463L262.468 418.013C263.229 417.553 264.106 417.322 264.995 417.346H279.862C280.824 417.346 281.299 417.637 280.92 418.01L278.396 420.46C277.652 420.949 276.775 421.194 275.886 421.162Z" fill="url(#paint45_linear)"/>
<path style="mix-blend-mode:overlay" opacity="0.7" d="M300.579 421.162H285.243C284.249 421.162 283.753 420.851 284.132 420.463L286.546 418.013C287.255 417.543 288.095 417.311 288.945 417.349H303.812C304.774 417.349 305.308 417.64 304.999 418.016L302.958 420.466C302.27 420.967 301.429 421.213 300.579 421.162Z" fill="url(#paint46_linear)"/>
<path style="mix-blend-mode:overlay" opacity="0.7" d="M325.247 421.162H309.908C308.914 421.162 308.357 420.848 308.663 420.463L310.598 418.013C311.252 417.529 312.057 417.292 312.869 417.346H327.736C328.698 417.346 329.29 417.637 329.054 418.013L327.483 420.463C326.856 420.977 326.055 421.228 325.247 421.162Z" fill="url(#paint47_linear)"/>
<path style="mix-blend-mode:overlay" opacity="0.7" d="M349.932 421.162H334.595C333.601 421.162 332.983 420.851 333.214 420.463L334.671 418.013C334.966 417.767 335.307 417.581 335.675 417.467C336.042 417.353 336.428 417.313 336.811 417.349H351.678C352.64 417.349 353.287 417.64 353.135 418.013L352.039 420.463C351.867 420.842 350.923 421.162 349.932 421.162Z" fill="url(#paint48_linear)"/>
<path style="mix-blend-mode:overlay" opacity="0.7" d="M374.622 421.162H359.286C358.292 421.162 357.613 420.851 357.767 420.463L358.753 418.013C358.901 417.643 359.799 417.349 360.764 417.349H375.631C376.593 417.349 377.298 417.64 377.208 418.016L376.587 420.466C376.488 420.842 375.605 421.162 374.622 421.162Z" fill="url(#paint49_linear)"/>
<path style="mix-blend-mode:overlay" opacity="0.7" d="M399.295 421.162H383.95C382.956 421.162 382.219 420.851 382.298 420.463L382.805 418.013C382.881 417.643 383.723 417.346 384.685 417.346H399.552C400.514 417.346 401.278 417.637 401.254 418.01L401.114 420.46C401.109 420.842 400.275 421.162 399.295 421.162Z" fill="url(#paint50_linear)"/>
<path style="mix-blend-mode:overlay" opacity="0.7" d="M423.977 421.162H408.641C407.647 421.162 406.848 420.848 406.851 420.463L406.883 418.013C406.883 417.643 407.671 417.349 408.632 417.349H423.499C424.461 417.349 425.283 417.64 425.333 418.013L425.668 420.463C425.729 420.842 424.969 421.162 423.977 421.162Z" fill="url(#paint51_linear)"/>
<path style="mix-blend-mode:overlay" opacity="0.7" d="M448.665 421.162H433.329C432.335 421.162 431.475 420.848 431.405 420.463L430.959 418.013C430.892 417.643 431.618 417.349 432.58 417.349H447.447C448.409 417.349 449.286 417.64 449.409 418.013L450.222 420.463C450.35 420.842 449.651 421.162 448.665 421.162Z" fill="url(#paint52_linear)"/>
<path style="mix-blend-mode:overlay" opacity="0.7" d="M473.341 421.162H457.993C456.999 421.162 456.078 420.851 455.932 420.463L455.008 418.013C454.871 417.643 455.539 417.349 456.501 417.349H471.368C472.33 417.349 473.268 417.64 473.461 418.013L474.749 420.463C474.971 420.842 474.318 421.162 473.341 421.162Z" fill="url(#paint53_linear)"/>
<path style="mix-blend-mode:overlay" opacity="0.7" d="M498.023 421.162H482.687C482.292 421.2 481.894 421.157 481.517 421.037C481.139 420.917 480.789 420.722 480.489 420.463L479.09 418.013C478.88 417.643 479.492 417.349 480.454 417.349H495.321C496.118 417.288 496.909 417.525 497.542 418.013L499.306 420.463C499.592 420.842 499.014 421.162 498.023 421.162Z" fill="url(#paint54_linear)"/>
<path style="mix-blend-mode:overlay" opacity="0.7" d="M522.708 421.162H507.372C506.536 421.219 505.707 420.971 505.04 420.463L503.163 418.013C502.871 417.643 503.434 417.346 504.396 417.346H519.263C520.099 417.302 520.926 417.535 521.615 418.01L523.857 420.46C524.215 420.842 523.696 421.162 522.708 421.162Z" fill="url(#paint55_linear)"/>
<path style="mix-blend-mode:overlay" opacity="0.7" d="M553.025 421.159H532.036C531.16 421.198 530.294 420.953 529.567 420.46L527.215 418.01C526.862 417.64 527.358 417.346 528.32 417.346H548.676C549.559 417.32 550.431 417.551 551.186 418.01L554.01 420.46C554.483 420.842 554.028 421.159 553.025 421.159Z" fill="url(#paint56_linear)"/>
<path style="mix-blend-mode:overlay" opacity="0.7" d="M583.502 421.162H562.382C561.459 421.181 560.55 420.938 559.759 420.463L556.82 418.013C556.377 417.643 556.803 417.349 557.765 417.349H578.249C579.182 417.337 580.101 417.566 580.919 418.013L584.336 420.463C584.861 420.842 584.508 421.162 583.502 421.162Z" fill="url(#paint57_linear)"/>
<path style="mix-blend-mode:overlay" opacity="0.7" d="M256.544 426.403H229.434C228.017 426.403 227.207 426.156 227.627 425.85L231.821 422.794C232.841 422.394 233.934 422.216 235.028 422.272H261.264C262.64 422.272 263.488 422.505 263.161 422.794L259.71 425.85C258.713 426.28 257.628 426.469 256.544 426.403Z" fill="url(#paint58_linear)"/>
<path style="mix-blend-mode:overlay" opacity="0.7" d="M295.423 426.397H268.312C266.896 426.397 266.015 426.15 266.342 425.844L269.642 422.788C270.603 422.374 271.649 422.196 272.694 422.266H298.953C300.326 422.266 301.244 422.499 300.993 422.788L298.44 425.844C297.501 426.292 296.46 426.483 295.423 426.397Z" fill="url(#paint59_linear)"/>
<path style="mix-blend-mode:overlay" opacity="0.7" d="M321.819 426.397H305.85C304.818 426.397 304.249 426.057 304.579 425.64L306.675 422.986C307.357 422.469 308.202 422.213 309.056 422.266H324.527C325.527 422.266 326.133 422.587 325.876 422.986L324.177 425.64C323.521 426.193 322.674 426.465 321.819 426.397Z" fill="url(#paint60_linear)"/>
<path style="mix-blend-mode:overlay" opacity="0.7" d="M347.512 426.397H331.546C330.511 426.397 329.876 426.057 330.127 425.64L331.707 422.986C332.013 422.722 332.369 422.522 332.754 422.399C333.139 422.275 333.545 422.23 333.948 422.266H349.416C350.418 422.266 351.086 422.587 350.908 422.986L349.722 425.64C349.553 426.057 348.553 426.397 347.512 426.397Z" fill="url(#paint61_linear)"/>
<path style="mix-blend-mode:overlay" opacity="0.7" d="M373.217 426.397H357.251C356.216 426.397 355.502 426.057 355.683 425.64L356.747 422.986C356.907 422.587 357.849 422.266 358.849 422.266H374.331C375.331 422.266 376.062 422.587 375.96 422.986L375.293 425.64C375.176 426.057 374.252 426.397 373.217 426.397Z" fill="url(#paint62_linear)"/>
<path style="mix-blend-mode:overlay" opacity="0.7" d="M398.917 426.397H382.951C381.916 426.397 381.149 426.057 381.237 425.64L381.785 422.986C381.866 422.587 382.744 422.266 383.747 422.266H399.214C400.217 422.266 401.01 422.587 400.986 422.986L400.832 425.64C400.809 426.057 399.951 426.397 398.917 426.397Z" fill="url(#paint63_linear)"/>
<path style="mix-blend-mode:overlay" opacity="0.7" d="M424.619 426.397H408.65C407.615 426.397 406.781 426.057 406.787 425.64L406.822 422.986C406.822 422.587 407.641 422.266 408.641 422.266H424.112C425.111 422.266 425.968 422.587 426.021 422.986L426.385 425.64C426.444 426.057 425.636 426.397 424.619 426.397Z" fill="url(#paint64_linear)"/>
<path style="mix-blend-mode:overlay" opacity="0.7" d="M450.318 426.397H434.349C433.317 426.397 432.417 426.057 432.341 425.64L431.857 422.986C431.784 422.587 432.539 422.266 433.539 422.266H449.006C450.009 422.266 450.927 422.587 451.047 422.986L451.921 425.64C452.076 426.057 451.35 426.397 450.318 426.397Z" fill="url(#paint65_linear)"/>
<path style="mix-blend-mode:overlay" opacity="0.7" d="M476.017 426.397H460.049C459.017 426.397 458.049 426.057 457.892 425.64L456.895 422.986C456.743 422.587 457.434 422.266 458.437 422.266H473.904C474.299 422.227 474.699 422.27 475.076 422.394C475.454 422.518 475.801 422.72 476.096 422.986L477.49 425.64C477.708 426.057 477.049 426.397 476.017 426.397Z" fill="url(#paint66_linear)"/>
<path style="mix-blend-mode:overlay" opacity="0.7" d="M501.72 426.397H485.751C485.336 426.435 484.917 426.386 484.521 426.256C484.125 426.126 483.76 425.916 483.448 425.64L481.932 422.986C481.705 422.587 482.334 422.266 483.334 422.266H498.804C499.645 422.206 500.477 422.463 501.137 422.986L503.049 425.64C503.343 426.057 502.751 426.397 501.72 426.397Z" fill="url(#paint67_linear)"/>
<path style="mix-blend-mode:overlay" opacity="0.7" d="M527.416 426.397H511.447C510.565 426.451 509.693 426.182 508.996 425.64L506.955 422.986C506.649 422.587 507.214 422.266 508.217 422.266H523.685C524.566 422.225 525.436 422.478 526.157 422.986L528.582 425.64C528.976 426.057 528.451 426.397 527.416 426.397Z" fill="url(#paint68_linear)"/>
<path style="mix-blend-mode:overlay" opacity="0.7" d="M552.541 426.377H536.575C535.65 426.414 534.739 426.147 533.981 425.617L531.445 422.963C531.063 422.567 531.567 422.246 532.57 422.246H548.037C548.958 422.22 549.866 422.47 550.643 422.966L553.576 425.617C554.036 426.045 553.573 426.377 552.541 426.377Z" fill="url(#paint69_linear)"/>
<path style="mix-blend-mode:overlay" opacity="0.7" d="M590.023 426.397H563.336C562.238 426.464 561.14 426.275 560.129 425.844L556.608 422.788C556.272 422.497 557.118 422.266 558.491 422.266H584.345C585.438 422.212 586.531 422.39 587.551 422.788L591.81 425.844C592.244 426.15 591.443 426.397 590.023 426.397Z" fill="url(#paint70_linear)"/>
<path style="mix-blend-mode:overlay" opacity="0.7" d="M264.485 432.081H221.024C219.948 432.081 219.581 431.711 220.205 431.257L224.166 428.373C225.069 427.858 226.09 427.589 227.128 427.592H269.172C270.213 427.592 270.7 427.941 270.257 428.373L267.286 431.257C266.463 431.82 265.482 432.109 264.485 432.081Z" fill="url(#paint71_linear)"/>
<path style="mix-blend-mode:overlay" opacity="0.7" d="M291.289 432.081H274.635C273.557 432.081 273.049 431.711 273.495 431.257L276.335 428.373C277.112 427.833 278.044 427.559 278.99 427.592H295.105C296.145 427.592 296.699 427.941 296.338 428.373L293.93 431.257C293.175 431.836 292.239 432.128 291.289 432.081Z" fill="url(#paint72_linear)"/>
<path style="mix-blend-mode:overlay" opacity="0.7" d="M318.093 432.081H301.454C300.375 432.081 299.795 431.711 300.154 431.257L302.433 428.373C303.146 427.818 304.036 427.54 304.937 427.592H321.049C322.093 427.592 322.713 427.941 322.437 428.373L320.588 431.257C320.248 431.553 319.853 431.779 319.424 431.921C318.996 432.062 318.543 432.117 318.093 432.081Z" fill="url(#paint73_linear)"/>
<path style="mix-blend-mode:overlay" opacity="0.7" d="M344.889 432.081H328.243C327.168 432.081 326.515 431.711 326.786 431.257L328.506 428.373C328.824 428.09 329.197 427.875 329.602 427.74C330.006 427.606 330.434 427.556 330.858 427.592H346.97C348.013 427.592 348.719 427.941 348.509 428.373L347.224 431.257C347.017 431.711 345.979 432.081 344.889 432.081Z" fill="url(#paint74_linear)"/>
<path style="mix-blend-mode:overlay" opacity="0.7" d="M371.707 432.081H355.053C353.975 432.081 353.249 431.711 353.433 431.257L354.599 428.373C354.771 427.941 355.765 427.592 356.799 427.592H372.911C373.955 427.592 374.713 427.941 374.602 428.373L373.876 431.257C373.748 431.711 372.783 432.081 371.707 432.081Z" fill="url(#paint75_linear)"/>
<path style="mix-blend-mode:overlay" opacity="0.7" d="M398.508 432.081H381.855C380.776 432.081 379.98 431.711 380.073 431.257L380.656 428.373C380.744 427.941 381.662 427.592 382.697 427.592H398.809C399.852 427.592 400.677 427.941 400.651 428.373L400.485 431.257C400.482 431.711 399.587 432.081 398.508 432.081Z" fill="url(#paint76_linear)"/>
<path style="mix-blend-mode:overlay" opacity="0.7" d="M425.315 432.081H408.659C407.583 432.081 406.711 431.711 406.717 431.257L406.755 428.373C406.755 427.941 407.609 427.592 408.653 427.592H424.762C425.805 427.592 426.697 427.941 426.756 428.373L427.149 431.257C427.216 431.711 426.391 432.081 425.315 432.081Z" fill="url(#paint77_linear)"/>
<path style="mix-blend-mode:overlay" opacity="0.7" d="M452.12 432.081H435.466C434.387 432.081 433.446 431.711 433.364 431.257L432.836 428.373C432.758 427.941 433.542 427.592 434.585 427.592H450.706C451.746 427.592 452.708 427.941 452.851 428.373L453.807 431.257C453.947 431.711 453.198 432.081 452.12 432.081Z" fill="url(#paint78_linear)"/>
<path style="mix-blend-mode:overlay" opacity="0.7" d="M478.924 432.081H462.27C461.191 432.081 460.18 431.711 460.008 431.257L458.92 428.372C458.76 427.941 459.474 427.592 460.515 427.592H476.63C477.046 427.552 477.466 427.601 477.862 427.735C478.258 427.87 478.621 428.087 478.927 428.372L480.442 431.257C480.682 431.711 480.002 432.081 478.924 432.081Z" fill="url(#paint79_linear)"/>
<path style="mix-blend-mode:overlay" opacity="0.7" d="M505.728 432.081H489.074C488.635 432.119 488.193 432.066 487.776 431.924C487.359 431.782 486.976 431.555 486.652 431.257L485.005 428.372C484.76 427.941 485.407 427.592 486.448 427.592H502.559C503.446 427.533 504.322 427.812 505.011 428.372L507.086 431.257C507.413 431.711 506.806 432.081 505.728 432.081Z" fill="url(#paint80_linear)"/>
<path style="mix-blend-mode:overlay" opacity="0.7" d="M532.535 432.081H515.878C514.945 432.134 514.025 431.84 513.295 431.257L511.089 428.372C510.759 427.941 511.336 427.592 512.38 427.592H528.492C529.423 427.552 530.339 427.827 531.095 428.372L533.718 431.257C534.147 431.711 533.611 432.081 532.535 432.081Z" fill="url(#paint81_linear)"/>
<path style="mix-blend-mode:overlay" opacity="0.7" d="M598.561 432.081H542.685C541.705 432.116 540.741 431.826 539.942 431.257L537.173 428.373C536.759 427.941 537.269 427.592 538.313 427.592H592.378C593.421 427.591 594.447 427.86 595.355 428.373L599.372 431.257C599.996 431.711 599.637 432.081 598.561 432.081Z" fill="url(#paint82_linear)"/>
</g>
<path d="M213.249 193.626L342.924 187.01C343.963 186.957 344.97 186.63 345.84 186.061C346.711 185.492 347.415 184.701 347.88 183.771C348.345 182.84 348.554 181.803 348.485 180.766C348.417 179.728 348.074 178.727 347.492 177.865L277.165 73.7343C276.599 72.8962 275.826 72.2186 274.921 71.7671C274.015 71.3155 273.008 71.1053 271.998 71.1569C270.987 71.2085 270.007 71.5201 269.153 72.0615C268.298 72.6029 267.598 73.3557 267.12 74.247L207.772 184.994C207.281 185.911 207.043 186.941 207.081 187.98C207.12 189.019 207.434 190.029 207.991 190.907C208.548 191.785 209.328 192.5 210.252 192.977C211.176 193.455 212.211 193.679 213.249 193.626Z" fill="url(#paint83_linear)"/>
<path d="M249.242 227.379C245.683 223.62 242.511 219.513 239.774 215.12C235.965 208.483 233.806 201.029 233.48 193.384L227.621 195.007C227.621 195.007 230.475 215.708 233.696 223.731C236.917 231.755 248.114 239.093 248.114 239.093L249.242 227.379Z" fill="#F8D2A1"/>
<path d="M292.266 224.807C296.523 221.826 300.279 218.187 303.392 214.027C306.956 207.37 310.072 200.484 312.721 193.413L318.288 195.858C318.288 195.858 312.505 215.939 308.17 223.42C303.835 230.901 291.703 236.564 291.703 236.564L292.266 224.807Z" fill="#F8D2A1"/>
<path d="M292.403 224.151C300.727 216.392 307.327 206.972 311.776 196.501L317.606 199.505C317.003 218.19 301.043 237.508 288.342 244.5C280.879 248.605 277.454 246.19 277.454 246.19L275.393 232.075C281.658 230.963 287.522 228.231 292.403 224.151Z" fill="url(#paint84_linear)"/>
<path d="M312.108 189.189C312.283 186.089 312.759 184.024 313.858 183.867C314.61 183.756 314.047 186.532 314.537 187.945C315.722 186.741 316.509 185.203 316.79 183.537C317.119 181.422 318.049 180.007 319.414 180.653C320.778 181.3 322.833 182.646 322.658 183.998C322.483 185.349 320.871 190.451 320.553 192.283C320.236 194.115 318.452 195.365 318.163 196.362C317.874 197.358 312.98 196.362 312.98 196.362C312.963 195.887 312.735 193.448 312.735 193.448C312.623 192.659 312.448 191.88 312.213 191.118C312.071 190.485 312.036 189.833 312.108 189.189Z" fill="#F8D2A1"/>
<path d="M272.49 384.986H279.486C279.486 384.986 279.527 386.235 283.442 387.025C284.642 387.367 285.726 388.028 286.581 388.937C287.436 389.846 288.028 390.969 288.295 392.187H272.475L272.49 384.986Z" fill="url(#paint85_linear)"/>
<path d="M254.098 377.006C254.39 377.475 254.098 387.019 254.098 387.019H261.095V376.531L254.098 377.006Z" fill="#F8D2A1"/>
<path d="M254.098 384.986H261.095C261.095 384.986 261.135 386.235 265.05 387.025C266.25 387.367 267.335 388.028 268.19 388.937C269.044 389.846 269.637 390.969 269.904 392.187H254.084L254.098 384.986Z" fill="url(#paint86_linear)"/>
<path d="M281.322 219.204C281.407 220.874 279.46 219.959 279.255 220.623C279.051 221.287 280.541 224.437 279.255 225.506C277.97 226.575 274.44 226.814 273.909 227.961C273.944 230.253 274.355 232.524 275.125 234.682L262.202 235.21L262.817 224.565C262.336 221.252 262.567 217.876 263.494 214.66C265.027 209.028 275.428 205.413 275.428 205.413C275.9 205.122 276.527 202.878 277.337 203.717C278.6 205.02 279.086 209.503 279.489 211.738C279.891 213.972 281.244 217.538 281.322 219.204Z" fill="#F8D2A1"/>
<path d="M281.322 219.204C281.407 220.874 279.46 219.959 279.255 220.623L279.489 211.752C279.882 214.001 281.244 217.538 281.322 219.204Z" fill="#DBA87B"/>
<path d="M278.748 205.046C278.518 206.135 275.376 206.948 275.174 209.401C275.084 210.866 275.366 212.331 275.994 213.657C275.816 214.915 275.561 216.16 275.233 217.386C275.233 217.386 274.915 214.307 273.536 214.234C272.157 214.161 271.041 215.134 272.405 217.52C272.991 218.371 273.284 219.39 273.238 220.422C273.192 221.454 272.811 222.443 272.152 223.239C271.458 224.374 271.151 225.703 271.277 227.026C268.878 227.134 262.672 227.437 262.672 227.437C261.299 223.292 259.576 220.495 258.299 216.833C258.802 214.438 259.176 212.019 259.421 209.585C259.459 207.895 257.672 207.679 258.658 205.739C259.981 203.758 261.815 202.171 263.967 201.145C266.118 200.12 268.507 199.694 270.881 199.913C273.971 200.769 276.72 202.563 278.748 205.046Z" fill="url(#paint87_linear)"/>
<path d="M262.905 286.797C262.719 295.143 264.205 303.442 267.277 311.205C271.65 324.023 272.478 372.071 272.478 372.071H280.387C280.387 372.071 281.366 340.931 282.931 322.155C283.861 310.388 283.861 298.565 282.931 286.797H262.905Z" fill="url(#paint88_linear)"/>
<path d="M263.975 233.52C263.975 233.52 247.805 227.857 242.161 218.161C238.415 212.169 236.014 205.436 235.124 198.427L228.239 199.654C228.239 199.654 227.519 216.783 236.366 229.902C245.213 243.02 265.887 251.46 265.887 251.46L263.975 233.52Z" fill="url(#paint89_linear)"/>
<path d="M225.904 191.138C225.851 189.282 224.986 184.001 225.006 182.64C225.026 181.28 227.251 180.24 228.696 179.794C230.142 179.348 230.862 180.883 230.886 183.025C230.907 184.876 231.577 186.662 232.78 188.07C233.544 186.404 233.445 184.633 234.238 185.052C235.031 185.472 235.048 186.981 234.699 189.294C234.679 189.93 234.555 190.559 234.331 191.156C233.991 191.875 233.707 192.62 233.483 193.384C233.483 193.384 232.9 195.767 232.824 196.233C232.824 196.233 227.842 196.525 227.694 195.505C227.545 194.485 225.953 192.997 225.904 191.138Z" fill="#F8D2A1"/>
<path d="M248.449 285.585C248.122 294.146 248.553 302.72 249.738 311.205C252.148 329.112 253.279 372.071 253.279 372.071H261.109C261.109 372.071 263.826 340.931 265.391 322.155C266.481 310.191 268.684 298.353 271.974 286.797L248.449 285.585Z" fill="url(#paint90_linear)"/>
<path d="M246.758 292.19C246.758 292.19 247.72 281.819 249.128 265.184C250.491 253.553 253.468 242.168 257.975 231.358C257.975 231.358 261.587 231.382 263.744 231.358C267.024 231.303 275.988 231.358 275.988 231.358C278.902 235.476 280.812 240.218 281.567 245.205C282.442 252.759 284.482 293.88 284.482 293.88C277.561 296.986 270.049 298.56 262.462 298.494C249.242 298.552 246.758 292.19 246.758 292.19Z" fill="url(#paint91_linear)"/>
<path d="M258.561 217.168C258.561 217.168 252.62 204.443 262.188 199.581C270.23 195.502 276.51 200.361 279.777 203.56C279.655 203.537 285.975 205.55 285.975 205.55C285.975 205.55 283.246 210.916 265.619 216.189C263.359 216.997 260.956 217.331 258.561 217.168Z" fill="url(#paint92_linear)"/>
<path d="M257.602 388.583L261.1 384.985V372.074H253.271L254.09 384.985L257.602 388.583Z" fill="url(#paint93_linear)"/>
<path d="M272.49 372.071V387.016H279.486L280.387 372.071H272.49Z" fill="url(#paint94_linear)"/>
<path d="M241.118 456.742H324.183V395.182H241.118V456.742Z" stroke="#97A3CC" stroke-width="3.24536" stroke-miterlimit="10"/>
<path d="M241.118 456.742L324.183 395.182" stroke="#97A3CC" stroke-width="3.24536" stroke-miterlimit="10"/>
<path d="M241.118 395.182L324.183 456.742" stroke="#97A3CC" stroke-width="3.24536" stroke-miterlimit="10"/>
<path d="M207.693 456.742H241.118V395.182H207.693V456.742Z" stroke="#97A3CC" stroke-width="3.24536" stroke-miterlimit="10"/>
<path d="M207.69 456.742L241.114 395.182" stroke="#97A3CC" stroke-width="3.24536" stroke-miterlimit="10"/>
<path d="M207.69 395.182L241.114 456.742" stroke="#97A3CC" stroke-width="3.24536" stroke-miterlimit="10"/>
<path d="M241.118 395.182V456.742" stroke="#97A3CC" stroke-width="6.49071" stroke-miterlimit="10"/>
<path d="M324.864 458.006L324.182 395.182H207.69V458.006" stroke="#97A3CC" stroke-width="6.49071" stroke-miterlimit="10"/>
<path d="M278.011 148.337L272.555 148.616L270.387 114.5L276.724 114.177L278.011 148.337ZM272.433 159.037C272.383 158.057 272.635 157.225 273.19 156.542C273.765 155.836 274.641 155.453 275.817 155.393C276.993 155.333 277.903 155.625 278.547 156.269C279.19 156.891 279.537 157.692 279.587 158.672C279.637 159.652 279.374 160.484 278.797 161.169C278.22 161.831 277.343 162.193 276.167 162.253C274.991 162.313 274.082 162.043 273.44 161.442C272.818 160.819 272.483 160.017 272.433 159.037Z" fill="#231F20"/>
<path d="M225.971 179.808L328.873 174.565L273.061 91.9362L225.971 179.808Z" stroke="#231F20" stroke-width="4.16886" stroke-linecap="round" stroke-linejoin="round"/>
<path d="M598.523 93.9406H371.541C369.199 93.9406 367.3 95.8383 367.3 98.1793V183.336C367.3 185.677 369.199 187.575 371.541 187.575H598.523C600.866 187.575 602.765 185.677 602.765 183.336V98.1793C602.765 95.8383 600.866 93.9406 598.523 93.9406Z" fill="#4E5683"/>
<path d="M418.592 112.192L418.58 131.909C418.578 135.141 419.291 137.534 420.72 139.088C422.149 140.612 424.121 141.374 426.638 141.376C429.124 141.377 431.067 140.602 432.466 139.049C433.866 137.496 434.566 135.119 434.568 131.918L434.58 112.201L438.821 112.204L438.81 131.921C438.807 136.396 437.686 139.766 435.448 142.034C433.24 144.27 430.272 145.387 426.543 145.384C422.845 145.382 419.878 144.262 417.642 142.023C415.437 139.753 414.336 136.381 414.338 131.906L414.35 112.189L418.592 112.192ZM470.924 145.084L466.682 145.082L449.637 119.109L449.622 145.072L445.38 145.069L445.4 112.208L449.642 112.21L466.686 138.23L466.702 112.22L470.943 112.223L470.924 145.084ZM505.442 128.651C505.44 131.976 504.77 134.881 503.432 137.366C502.095 139.82 500.12 141.73 497.509 143.096C494.929 144.431 491.822 145.097 488.186 145.095L477.745 145.088L477.764 112.227L488.205 112.233C491.841 112.235 494.948 112.905 497.526 114.243C500.136 115.55 502.108 117.446 503.443 119.933C504.778 122.389 505.444 125.295 505.442 128.651ZM487.862 141.272C492.15 141.275 495.429 140.174 497.699 137.969C499.969 135.764 501.105 132.657 501.107 128.648C501.109 124.64 499.977 121.532 497.71 119.324C495.474 117.085 492.196 115.965 487.877 115.962L482.004 115.958L481.989 141.269L487.862 141.272ZM515.415 115.699L515.408 126.932L527.9 126.94L527.899 130.202L515.407 130.195L515.4 141.661L529.29 141.67L529.288 145.119L511.156 145.108L511.175 112.247L529.308 112.258L529.305 115.707L515.415 115.699ZM552.168 145.133L543.599 131.703L538.985 131.701L538.977 145.125L534.735 145.122L534.755 112.261L545.569 112.267C549.298 112.269 552.094 113.172 553.957 114.976C555.821 116.748 556.751 119.11 556.75 122.062C556.748 124.735 556.001 126.894 554.508 128.54C553.016 130.155 550.856 131.164 548.028 131.566L556.969 145.135L552.168 145.133ZM538.987 128.624L545.186 128.628C550.003 128.631 552.412 126.519 552.415 122.293C552.417 118.067 550.01 115.952 545.193 115.949L538.994 115.946L538.987 128.624Z" fill="white"/>
<path d="M425.781 158.918L425.771 174.614L423.71 174.613L423.718 162.087L418.705 174.61L416.87 174.609L411.849 162.126L411.841 174.606L409.78 174.605L409.79 158.908L412.258 158.91L417.823 172.096L423.312 158.916L425.781 158.918ZM438.425 170.93L431.404 170.926L430.065 174.617L427.845 174.616L433.767 158.945L436.1 158.946L441.979 174.624L439.76 174.623L438.425 170.93ZM437.837 169.321L434.92 161.256L431.994 169.318L437.837 169.321ZM446.136 158.658L446.127 174.627L444.066 174.625L444.075 158.657L446.136 158.658ZM461.853 174.636L459.792 174.635L451.509 162.013L451.502 174.63L449.441 174.628L449.45 158.66L451.511 158.661L459.794 171.305L459.801 158.666L461.863 158.667L461.853 174.636ZM474.962 158.675L474.961 160.351L470.454 160.348L470.445 174.641L468.384 174.64L468.393 160.347L463.885 160.345L463.886 158.668L474.962 158.675ZM479.071 160.354L479.068 165.812L485.139 165.816L485.138 167.401L479.067 167.398L479.064 172.97L485.814 172.974L485.813 174.65L477.002 174.645L477.011 158.676L485.822 158.681L485.821 160.358L479.071 160.354ZM500.872 174.659L498.811 174.658L490.528 162.037L490.521 174.653L488.46 174.652L488.469 158.683L490.53 158.684L498.813 171.328L498.82 158.689L500.882 158.69L500.872 174.659ZM513.544 170.974L506.522 170.97L505.183 174.662L502.964 174.66L508.885 158.99L511.218 158.991L517.098 174.669L514.878 174.667L513.544 170.974ZM512.956 169.366L510.039 161.301L507.112 169.362L512.956 169.366ZM531.596 174.677L529.535 174.676L521.253 162.055L521.245 174.671L519.184 174.67L519.193 158.701L521.255 158.702L529.537 171.346L529.545 158.707L531.606 158.709L531.596 174.677ZM541.987 158.556C543.935 158.557 545.543 159.042 546.811 160.009C548.079 160.961 548.954 162.267 549.436 163.929L547.262 163.928C546.855 162.87 546.198 162.032 545.293 161.412C544.387 160.777 543.277 160.46 541.964 160.459C540.922 160.458 539.985 160.714 539.155 161.227C538.339 161.725 537.689 162.45 537.205 163.401C536.737 164.337 536.502 165.439 536.501 166.707C536.5 167.96 536.734 169.055 537.201 169.992C537.684 170.928 538.333 171.654 539.148 172.167C539.978 172.666 540.914 172.916 541.956 172.917C543.27 172.917 544.38 172.609 545.286 171.99C546.193 171.356 546.85 170.511 547.259 169.454L549.433 169.456C548.949 171.116 548.072 172.43 546.803 173.395C545.534 174.346 543.926 174.82 541.978 174.819C540.483 174.818 539.162 174.478 538.015 173.798C536.867 173.102 535.969 172.143 535.321 170.919C534.687 169.681 534.371 168.276 534.372 166.706C534.373 165.12 534.691 163.709 535.326 162.471C535.976 161.233 536.875 160.275 538.023 159.596C539.171 158.902 540.493 158.555 541.987 158.556ZM554.256 160.398L554.253 165.857L560.323 165.861L560.322 167.446L554.252 167.443L554.249 173.015L560.998 173.019L560.997 174.695L552.186 174.689L552.196 158.721L561.007 158.726L561.006 160.402L554.256 160.398Z" fill="white"/>
<path d="M595.256 104.725C596.877 104.725 598.191 103.412 598.191 101.792C598.191 100.172 596.877 98.8581 595.256 98.8581C593.634 98.8581 592.32 100.172 592.32 101.792C592.32 103.412 593.634 104.725 595.256 104.725Z" fill="white"/>
<path d="M595.256 183.118C596.877 183.118 598.191 181.805 598.191 180.184C598.191 178.564 596.877 177.251 595.256 177.251C593.634 177.251 592.32 178.564 592.32 180.184C592.32 181.805 593.634 183.118 595.256 183.118Z" fill="white"/>
<path d="M378.426 101.789C378.427 102.369 378.255 102.937 377.933 103.42C377.611 103.903 377.152 104.279 376.616 104.501C376.079 104.724 375.489 104.782 374.919 104.669C374.349 104.556 373.826 104.277 373.415 103.866C373.005 103.456 372.725 102.933 372.612 102.363C372.499 101.794 372.557 101.204 372.779 100.668C373.002 100.132 373.379 99.6734 373.862 99.3513C374.345 99.0291 374.913 98.8575 375.494 98.8581C376.272 98.8581 377.018 99.1669 377.568 99.7165C378.118 100.266 378.426 101.012 378.426 101.789Z" fill="white"/>
<path d="M378.427 180.184C378.427 180.765 378.254 181.332 377.932 181.814C377.609 182.297 377.15 182.673 376.614 182.895C376.077 183.117 375.487 183.175 374.917 183.061C374.348 182.948 373.825 182.668 373.414 182.258C373.004 181.847 372.725 181.324 372.612 180.755C372.499 180.186 372.557 179.596 372.78 179.06C373.002 178.524 373.379 178.066 373.862 177.744C374.345 177.422 374.913 177.25 375.494 177.251C375.879 177.251 376.261 177.327 376.617 177.474C376.973 177.622 377.296 177.838 377.569 178.11C377.841 178.383 378.057 178.706 378.204 179.062C378.351 179.418 378.427 179.799 378.427 180.184Z" fill="white"/>
<path d="M714.202 442.982H639.523L673.213 319.082C673.433 318.283 673.908 317.577 674.568 317.074C675.227 316.571 676.033 316.298 676.863 316.297C677.692 316.299 678.497 316.572 679.156 317.075C679.815 317.578 680.29 318.283 680.509 319.082L714.202 442.982Z" fill="url(#paint95_linear)"/>
<path d="M702.906 341.703H649.563V358.638H702.906V341.703Z" fill="white"/>
<path d="M702.906 374.632H649.563V391.567H702.906V374.632Z" fill="white"/>
<path d="M713.844 407.557H638.626V424.492H713.844V407.557Z" fill="white"/>
<path d="M730.518 439.507H621.952V454.595H730.518V439.507Z" fill="url(#paint96_linear)"/>
</g>
<defs>
<linearGradient id="paint0_linear" x1="0" y1="453.451" x2="776.667" y2="453.451" gradientUnits="userSpaceOnUse">
<stop stop-color="#EEF4FB"/>
<stop offset="0.311" stop-color="#E3EDF8"/>
<stop offset="1" stop-color="#CFE1F3"/>
</linearGradient>
<linearGradient id="paint1_linear" x1="119.631" y1="316.297" x2="119.631" y2="442.982" gradientUnits="userSpaceOnUse">
<stop stop-color="#FC9D00"/>
<stop offset="1" stop-color="#F3510F"/>
</linearGradient>
<linearGradient id="paint2_linear" x1="119.004" y1="439.507" x2="119.004" y2="454.595" gradientUnits="userSpaceOnUse">
<stop stop-color="#FC9D00"/>
<stop offset="1" stop-color="#F3510F"/>
</linearGradient>
<linearGradient id="paint3_linear" x1="411.213" y1="445.345" x2="410.725" y2="382.027" gradientUnits="userSpaceOnUse">
<stop stop-color="#EEF4FB"/>
<stop offset="0.311" stop-color="#E3EDF8"/>
<stop offset="1" stop-color="#CFE1F3"/>
</linearGradient>
<linearGradient id="paint4_linear" x1="411.383" y1="364.773" x2="411.228" y2="440.139" gradientUnits="userSpaceOnUse">
<stop stop-color="#75769A"/>
<stop offset="0.968" stop-color="white" stop-opacity="0"/>
</linearGradient>
<linearGradient id="paint5_linear" x1="410.38" y1="415.333" x2="410.38" y2="430.784" gradientUnits="userSpaceOnUse">
<stop stop-color="#EEF4FB"/>
<stop offset="0.311" stop-color="#E3EDF8"/>
<stop offset="1" stop-color="#CFE1F3"/>
</linearGradient>
<linearGradient id="paint6_linear" x1="411.932" y1="271.511" x2="411.883" y2="375.622" gradientUnits="userSpaceOnUse">
<stop stop-color="#EEF4FB"/>
<stop offset="0.311" stop-color="#E3EDF8"/>
<stop offset="1" stop-color="#CFE1F3"/>
</linearGradient>
<radialGradient id="paint7_radial" cx="0" cy="0" r="1" gradientUnits="userSpaceOnUse" gradientTransform="translate(-459.515 -282.298) rotate(20.6351) scale(349.086 72.766)">
<stop stop-color="white"/>
<stop offset="1" stop-color="white" stop-opacity="0"/>
</radialGradient>
<linearGradient id="paint8_linear" x1="852.411" y1="237.671" x2="853.581" y2="317.741" gradientUnits="userSpaceOnUse">
<stop stop-color="#ACED86"/>
<stop offset="0.053" stop-color="#96ED8D"/>
<stop offset="0.161" stop-color="#5EED9F"/>
<stop offset="0.214" stop-color="#41EDA9"/>
<stop offset="1" stop-color="#4D6191"/>
</linearGradient>
<linearGradient id="paint9_linear" x1="275.776" y1="254.969" x2="276.504" y2="329.257" gradientUnits="userSpaceOnUse">
<stop stop-color="#ACED86"/>
<stop offset="0.053" stop-color="#96ED8D"/>
<stop offset="0.161" stop-color="#5EED9F"/>
<stop offset="0.214" stop-color="#41EDA9"/>
<stop offset="1" stop-color="#4D6191"/>
</linearGradient>
<linearGradient id="paint10_linear" x1="656.653" y1="244.609" x2="656.653" y2="293.702" gradientUnits="userSpaceOnUse">
<stop stop-color="#ACED86"/>
<stop offset="0.053" stop-color="#96ED8D"/>
<stop offset="0.161" stop-color="#5EED9F"/>
<stop offset="0.214" stop-color="#41EDA9"/>
<stop offset="1" stop-color="#4D6191"/>
</linearGradient>
<linearGradient id="paint11_linear" x1="536.257" y1="266.277" x2="536.257" y2="295.948" gradientUnits="userSpaceOnUse">
<stop stop-color="#ACED86"/>
<stop offset="0.053" stop-color="#96ED8D"/>
<stop offset="0.161" stop-color="#5EED9F"/>
<stop offset="0.214" stop-color="#41EDA9"/>
<stop offset="1" stop-color="#4D6191"/>
</linearGradient>
<linearGradient id="paint12_linear" x1="239.81" y1="275.928" x2="239.81" y2="295.948" gradientUnits="userSpaceOnUse">
<stop stop-color="#ACED86"/>
<stop offset="0.053" stop-color="#96ED8D"/>
<stop offset="0.161" stop-color="#5EED9F"/>
<stop offset="0.214" stop-color="#41EDA9"/>
<stop offset="1" stop-color="#4D6191"/>
</linearGradient>
<linearGradient id="paint13_linear" x1="135.11" y1="263.317" x2="135.5" y2="301.939" gradientUnits="userSpaceOnUse">
<stop stop-color="#ACED86"/>
<stop offset="0.053" stop-color="#96ED8D"/>
<stop offset="0.161" stop-color="#5EED9F"/>
<stop offset="0.214" stop-color="#41EDA9"/>
<stop offset="1" stop-color="#4D6191"/>
</linearGradient>
<linearGradient id="paint14_linear" x1="619.051" y1="265.553" x2="619.82" y2="317.505" gradientUnits="userSpaceOnUse">
<stop stop-color="#ACED86"/>
<stop offset="0.053" stop-color="#96ED8D"/>
<stop offset="0.161" stop-color="#5EED9F"/>
<stop offset="0.214" stop-color="#41EDA9"/>
<stop offset="1" stop-color="#4D6191"/>
</linearGradient>
<linearGradient id="paint15_linear" x1="408.42" y1="411.01" x2="408.42" y2="443.047" gradientUnits="userSpaceOnUse">
<stop stop-color="#EEF4FB"/>
<stop offset="0.311" stop-color="#E3EDF8"/>
<stop offset="1" stop-color="#CFE1F3"/>
</linearGradient>
<linearGradient id="paint16_linear" x1="408.42" y1="456.398" x2="408.42" y2="443.032" gradientUnits="userSpaceOnUse">
<stop stop-color="#EEF4FB"/>
<stop offset="0.311" stop-color="#E3EDF8"/>
<stop offset="1" stop-color="#CFE1F3"/>
</linearGradient>
<linearGradient id="paint17_linear" x1="408.867" y1="405.474" x2="408.866" y2="482.235" gradientUnits="userSpaceOnUse">
<stop stop-color="#75769A"/>
<stop offset="0.968" stop-color="white" stop-opacity="0"/>
</linearGradient>
<linearGradient id="paint18_linear" x1="251.351" y1="413.884" x2="251.351" y2="416.328" gradientUnits="userSpaceOnUse">
<stop stop-color="white"/>
<stop offset="1" stop-color="white" stop-opacity="0"/>
</linearGradient>
<linearGradient id="paint19_linear" x1="274.856" y1="413.883" x2="274.856" y2="416.33" gradientUnits="userSpaceOnUse">
<stop stop-color="white"/>
<stop offset="1" stop-color="white" stop-opacity="0"/>
</linearGradient>
<linearGradient id="paint20_linear" x1="298.351" y1="413.881" x2="298.351" y2="416.334" gradientUnits="userSpaceOnUse">
<stop stop-color="white"/>
<stop offset="1" stop-color="white" stop-opacity="0"/>
</linearGradient>
<linearGradient id="paint21_linear" x1="321.867" y1="413.877" x2="321.867" y2="416.338" gradientUnits="userSpaceOnUse">
<stop stop-color="white"/>
<stop offset="1" stop-color="white" stop-opacity="0"/>
</linearGradient>
<linearGradient id="paint22_linear" x1="345.373" y1="413.873" x2="345.373" y2="416.327" gradientUnits="userSpaceOnUse">
<stop stop-color="white"/>
<stop offset="1" stop-color="white" stop-opacity="0"/>
</linearGradient>
<linearGradient id="paint23_linear" x1="368.888" y1="413.882" x2="368.888" y2="416.324" gradientUnits="userSpaceOnUse">
<stop stop-color="white"/>
<stop offset="1" stop-color="white" stop-opacity="0"/>
</linearGradient>
<linearGradient id="paint24_linear" x1="392.383" y1="413.885" x2="392.383" y2="416.327" gradientUnits="userSpaceOnUse">
<stop stop-color="white"/>
<stop offset="1" stop-color="white" stop-opacity="0"/>
</linearGradient>
<linearGradient id="paint25_linear" x1="415.969" y1="413.885" x2="415.969" y2="416.324" gradientUnits="userSpaceOnUse">
<stop stop-color="white"/>
<stop offset="1" stop-color="white" stop-opacity="0"/>
</linearGradient>
<linearGradient id="paint26_linear" x1="439.476" y1="413.885" x2="439.476" y2="416.327" gradientUnits="userSpaceOnUse">
<stop stop-color="white"/>
<stop offset="1" stop-color="white" stop-opacity="0"/>
</linearGradient>
<linearGradient id="paint27_linear" x1="462.988" y1="413.885" x2="462.988" y2="416.327" gradientUnits="userSpaceOnUse">
<stop stop-color="white"/>
<stop offset="1" stop-color="white" stop-opacity="0"/>
</linearGradient>
<linearGradient id="paint28_linear" x1="486.493" y1="413.882" x2="486.493" y2="416.34" gradientUnits="userSpaceOnUse">
<stop stop-color="white"/>
<stop offset="1" stop-color="white" stop-opacity="0"/>
</linearGradient>
<linearGradient id="paint29_linear" x1="509.998" y1="413.883" x2="509.998" y2="416.335" gradientUnits="userSpaceOnUse">
<stop stop-color="white"/>
<stop offset="1" stop-color="white" stop-opacity="0"/>
</linearGradient>
<linearGradient id="paint30_linear" x1="536.211" y1="413.883" x2="536.211" y2="416.328" gradientUnits="userSpaceOnUse">
<stop stop-color="white"/>
<stop offset="1" stop-color="white" stop-opacity="0"/>
</linearGradient>
<linearGradient id="paint31_linear" x1="565.166" y1="413.887" x2="565.166" y2="416.329" gradientUnits="userSpaceOnUse">
<stop stop-color="white"/>
<stop offset="1" stop-color="white" stop-opacity="0"/>
</linearGradient>
<linearGradient id="paint32_linear" x1="223.263" y1="433.383" x2="223.263" y2="439.88" gradientUnits="userSpaceOnUse">
<stop stop-color="white"/>
<stop offset="1" stop-color="white" stop-opacity="0"/>
</linearGradient>
<linearGradient id="paint33_linear" x1="250.954" y1="433.383" x2="250.954" y2="439.881" gradientUnits="userSpaceOnUse">
<stop stop-color="white"/>
<stop offset="1" stop-color="white" stop-opacity="0"/>
</linearGradient>
<linearGradient id="paint34_linear" x1="278.631" y1="433.381" x2="278.631" y2="439.883" gradientUnits="userSpaceOnUse">
<stop stop-color="white"/>
<stop offset="1" stop-color="white" stop-opacity="0"/>
</linearGradient>
<linearGradient id="paint35_linear" x1="306.332" y1="433.378" x2="306.332" y2="439.888" gradientUnits="userSpaceOnUse">
<stop stop-color="white"/>
<stop offset="1" stop-color="white" stop-opacity="0"/>
</linearGradient>
<linearGradient id="paint36_linear" x1="375.135" y1="433.354" x2="375.135" y2="439.88" gradientUnits="userSpaceOnUse">
<stop stop-color="white"/>
<stop offset="1" stop-color="white" stop-opacity="0"/>
</linearGradient>
<linearGradient id="paint37_linear" x1="445.134" y1="433.383" x2="445.134" y2="439.88" gradientUnits="userSpaceOnUse">
<stop stop-color="white"/>
<stop offset="1" stop-color="white" stop-opacity="0"/>
</linearGradient>
<linearGradient id="paint38_linear" x1="472.824" y1="433.37" x2="472.824" y2="439.88" gradientUnits="userSpaceOnUse">
<stop stop-color="white"/>
<stop offset="1" stop-color="white" stop-opacity="0"/>
</linearGradient>
<linearGradient id="paint39_linear" x1="500.514" y1="433.376" x2="500.514" y2="439.891" gradientUnits="userSpaceOnUse">
<stop stop-color="white"/>
<stop offset="1" stop-color="white" stop-opacity="0"/>
</linearGradient>
<linearGradient id="paint40_linear" x1="564.689" y1="437.31" x2="564.689" y2="439.881" gradientUnits="userSpaceOnUse">
<stop stop-color="white"/>
<stop offset="1" stop-color="white" stop-opacity="0"/>
</linearGradient>
<linearGradient id="paint41_linear" x1="595.569" y1="437.31" x2="595.569" y2="439.88" gradientUnits="userSpaceOnUse">
<stop stop-color="white"/>
<stop offset="1" stop-color="white" stop-opacity="0"/>
</linearGradient>
<linearGradient id="paint42_linear" x1="533.814" y1="437.308" x2="533.814" y2="439.885" gradientUnits="userSpaceOnUse">
<stop stop-color="white"/>
<stop offset="1" stop-color="white" stop-opacity="0"/>
</linearGradient>
<linearGradient id="paint43_linear" x1="560.358" y1="433.38" x2="560.358" y2="435.812" gradientUnits="userSpaceOnUse">
<stop stop-color="white"/>
<stop offset="1" stop-color="white" stop-opacity="0"/>
</linearGradient>
<linearGradient id="paint44_linear" x1="245.907" y1="417.348" x2="245.907" y2="421.163" gradientUnits="userSpaceOnUse">
<stop stop-color="white"/>
<stop offset="1" stop-color="white" stop-opacity="0"/>
</linearGradient>
<linearGradient id="paint45_linear" x1="270.223" y1="417.344" x2="270.223" y2="421.165" gradientUnits="userSpaceOnUse">
<stop stop-color="white"/>
<stop offset="1" stop-color="white" stop-opacity="0"/>
</linearGradient>
<linearGradient id="paint46_linear" x1="294.546" y1="417.345" x2="294.546" y2="421.169" gradientUnits="userSpaceOnUse">
<stop stop-color="white"/>
<stop offset="1" stop-color="white" stop-opacity="0"/>
</linearGradient>
<linearGradient id="paint47_linear" x1="318.842" y1="417.339" x2="318.842" y2="421.173" gradientUnits="userSpaceOnUse">
<stop stop-color="white"/>
<stop offset="1" stop-color="white" stop-opacity="0"/>
</linearGradient>
<linearGradient id="paint48_linear" x1="343.161" y1="417.336" x2="343.161" y2="421.162" gradientUnits="userSpaceOnUse">
<stop stop-color="white"/>
<stop offset="1" stop-color="white" stop-opacity="0"/>
</linearGradient>
<linearGradient id="paint49_linear" x1="367.481" y1="417.349" x2="367.481" y2="421.162" gradientUnits="userSpaceOnUse">
<stop stop-color="white"/>
<stop offset="1" stop-color="white" stop-opacity="0"/>
</linearGradient>
<linearGradient id="paint50_linear" x1="391.773" y1="417.346" x2="391.773" y2="421.162" gradientUnits="userSpaceOnUse">
<stop stop-color="white"/>
<stop offset="1" stop-color="white" stop-opacity="0"/>
</linearGradient>
<linearGradient id="paint51_linear" x1="416.261" y1="417.349" x2="416.261" y2="421.162" gradientUnits="userSpaceOnUse">
<stop stop-color="white"/>
<stop offset="1" stop-color="white" stop-opacity="0"/>
</linearGradient>
<linearGradient id="paint52_linear" x1="440.596" y1="417.349" x2="440.596" y2="421.162" gradientUnits="userSpaceOnUse">
<stop stop-color="white"/>
<stop offset="1" stop-color="white" stop-opacity="0"/>
</linearGradient>
<linearGradient id="paint53_linear" x1="464.892" y1="417.349" x2="464.892" y2="421.162" gradientUnits="userSpaceOnUse">
<stop stop-color="white"/>
<stop offset="1" stop-color="white" stop-opacity="0"/>
</linearGradient>
<linearGradient id="paint54_linear" x1="489.214" y1="417.34" x2="489.214" y2="421.176" gradientUnits="userSpaceOnUse">
<stop stop-color="white"/>
<stop offset="1" stop-color="white" stop-opacity="0"/>
</linearGradient>
<linearGradient id="paint55_linear" x1="513.528" y1="417.341" x2="513.528" y2="421.17" gradientUnits="userSpaceOnUse">
<stop stop-color="white"/>
<stop offset="1" stop-color="white" stop-opacity="0"/>
</linearGradient>
<linearGradient id="paint56_linear" x1="540.649" y1="417.344" x2="540.649" y2="421.163" gradientUnits="userSpaceOnUse">
<stop stop-color="white"/>
<stop offset="1" stop-color="white" stop-opacity="0"/>
</linearGradient>
<linearGradient id="paint57_linear" x1="570.611" y1="417.348" x2="570.611" y2="421.163" gradientUnits="userSpaceOnUse">
<stop stop-color="white"/>
<stop offset="1" stop-color="white" stop-opacity="0"/>
</linearGradient>
<linearGradient id="paint58_linear" x1="245.374" y1="422.262" x2="245.374" y2="426.416" gradientUnits="userSpaceOnUse">
<stop stop-color="white"/>
<stop offset="1" stop-color="white" stop-opacity="0"/>
</linearGradient>
<linearGradient id="paint59_linear" x1="283.654" y1="422.251" x2="283.654" y2="426.417" gradientUnits="userSpaceOnUse">
<stop stop-color="white"/>
<stop offset="1" stop-color="white" stop-opacity="0"/>
</linearGradient>
<linearGradient id="paint60_linear" x1="315.21" y1="422.26" x2="315.21" y2="426.408" gradientUnits="userSpaceOnUse">
<stop stop-color="white"/>
<stop offset="1" stop-color="white" stop-opacity="0"/>
</linearGradient>
<linearGradient id="paint61_linear" x1="340.504" y1="422.254" x2="340.504" y2="426.397" gradientUnits="userSpaceOnUse">
<stop stop-color="white"/>
<stop offset="1" stop-color="white" stop-opacity="0"/>
</linearGradient>
<linearGradient id="paint62_linear" x1="365.812" y1="422.266" x2="365.812" y2="426.397" gradientUnits="userSpaceOnUse">
<stop stop-color="white"/>
<stop offset="1" stop-color="white" stop-opacity="0"/>
</linearGradient>
<linearGradient id="paint63_linear" x1="391.108" y1="422.266" x2="391.108" y2="426.397" gradientUnits="userSpaceOnUse">
<stop stop-color="white"/>
<stop offset="1" stop-color="white" stop-opacity="0"/>
</linearGradient>
<linearGradient id="paint64_linear" x1="416.588" y1="422.266" x2="416.588" y2="426.397" gradientUnits="userSpaceOnUse">
<stop stop-color="white"/>
<stop offset="1" stop-color="white" stop-opacity="0"/>
</linearGradient>
<linearGradient id="paint65_linear" x1="441.897" y1="422.266" x2="441.897" y2="426.397" gradientUnits="userSpaceOnUse">
<stop stop-color="white"/>
<stop offset="1" stop-color="white" stop-opacity="0"/>
</linearGradient>
<linearGradient id="paint66_linear" x1="467.203" y1="422.252" x2="467.203" y2="426.397" gradientUnits="userSpaceOnUse">
<stop stop-color="white"/>
<stop offset="1" stop-color="white" stop-opacity="0"/>
</linearGradient>
<linearGradient id="paint67_linear" x1="492.505" y1="422.258" x2="492.505" y2="426.41" gradientUnits="userSpaceOnUse">
<stop stop-color="white"/>
<stop offset="1" stop-color="white" stop-opacity="0"/>
</linearGradient>
<linearGradient id="paint68_linear" x1="517.792" y1="422.262" x2="517.792" y2="426.404" gradientUnits="userSpaceOnUse">
<stop stop-color="white"/>
<stop offset="1" stop-color="white" stop-opacity="0"/>
</linearGradient>
<linearGradient id="paint69_linear" x1="542.536" y1="422.244" x2="542.536" y2="426.38" gradientUnits="userSpaceOnUse">
<stop stop-color="white"/>
<stop offset="1" stop-color="white" stop-opacity="0"/>
</linearGradient>
<linearGradient id="paint70_linear" x1="574.231" y1="422.257" x2="574.231" y2="426.41" gradientUnits="userSpaceOnUse">
<stop stop-color="white"/>
<stop offset="1" stop-color="white" stop-opacity="0"/>
</linearGradient>
<linearGradient id="paint71_linear" x1="245.161" y1="427.592" x2="245.161" y2="432.083" gradientUnits="userSpaceOnUse">
<stop stop-color="white"/>
<stop offset="1" stop-color="white" stop-opacity="0"/>
</linearGradient>
<linearGradient id="paint72_linear" x1="284.891" y1="427.589" x2="284.891" y2="432.086" gradientUnits="userSpaceOnUse">
<stop stop-color="white"/>
<stop offset="1" stop-color="white" stop-opacity="0"/>
</linearGradient>
<linearGradient id="paint73_linear" x1="311.275" y1="427.586" x2="311.275" y2="432.092" gradientUnits="userSpaceOnUse">
<stop stop-color="white"/>
<stop offset="1" stop-color="white" stop-opacity="0"/>
</linearGradient>
<linearGradient id="paint74_linear" x1="337.635" y1="427.58" x2="337.635" y2="432.081" gradientUnits="userSpaceOnUse">
<stop stop-color="white"/>
<stop offset="1" stop-color="white" stop-opacity="0"/>
</linearGradient>
<linearGradient id="paint75_linear" x1="364.008" y1="427.592" x2="364.008" y2="432.081" gradientUnits="userSpaceOnUse">
<stop stop-color="white"/>
<stop offset="1" stop-color="white" stop-opacity="0"/>
</linearGradient>
<linearGradient id="paint76_linear" x1="390.359" y1="427.592" x2="390.359" y2="432.081" gradientUnits="userSpaceOnUse">
<stop stop-color="white"/>
<stop offset="1" stop-color="white" stop-opacity="0"/>
</linearGradient>
<linearGradient id="paint77_linear" x1="416.935" y1="427.592" x2="416.935" y2="432.081" gradientUnits="userSpaceOnUse">
<stop stop-color="white"/>
<stop offset="1" stop-color="white" stop-opacity="0"/>
</linearGradient>
<linearGradient id="paint78_linear" x1="443.328" y1="427.592" x2="443.328" y2="432.081" gradientUnits="userSpaceOnUse">
<stop stop-color="white"/>
<stop offset="1" stop-color="white" stop-opacity="0"/>
</linearGradient>
<linearGradient id="paint79_linear" x1="469.694" y1="427.578" x2="469.694" y2="432.081" gradientUnits="userSpaceOnUse">
<stop stop-color="white"/>
<stop offset="1" stop-color="white" stop-opacity="0"/>
</linearGradient>
<linearGradient id="paint80_linear" x1="496.064" y1="427.584" x2="496.064" y2="432.093" gradientUnits="userSpaceOnUse">
<stop stop-color="white"/>
<stop offset="1" stop-color="white" stop-opacity="0"/>
</linearGradient>
<linearGradient id="paint81_linear" x1="522.431" y1="427.588" x2="522.431" y2="432.087" gradientUnits="userSpaceOnUse">
<stop stop-color="white"/>
<stop offset="1" stop-color="white" stop-opacity="0"/>
</linearGradient>
<linearGradient id="paint82_linear" x1="568.353" y1="427.592" x2="568.353" y2="432.084" gradientUnits="userSpaceOnUse">
<stop stop-color="white"/>
<stop offset="1" stop-color="white" stop-opacity="0"/>
</linearGradient>
<linearGradient id="paint83_linear" x1="207.077" y1="132.391" x2="348.498" y2="132.391" gradientUnits="userSpaceOnUse">
<stop stop-color="#FFD71D"/>
<stop offset="1" stop-color="#FEA000"/>
</linearGradient>
<linearGradient id="paint84_linear" x1="304.394" y1="196.905" x2="304.394" y2="242.36" gradientUnits="userSpaceOnUse">
<stop stop-color="#FC9D00"/>
<stop offset="1" stop-color="#F3510F"/>
</linearGradient>
<linearGradient id="paint85_linear" x1="272.475" y1="388.586" x2="288.295" y2="388.586" gradientUnits="userSpaceOnUse">
<stop stop-color="#343A44"/>
<stop offset="0.301" stop-color="#232C3D"/>
<stop offset="0.639" stop-color="#172339"/>
<stop offset="1" stop-color="#142138"/>
</linearGradient>
<linearGradient id="paint86_linear" x1="254.084" y1="388.586" x2="269.904" y2="388.586" gradientUnits="userSpaceOnUse">
<stop stop-color="#343A44"/>
<stop offset="0.301" stop-color="#232C3D"/>
<stop offset="0.639" stop-color="#172339"/>
<stop offset="1" stop-color="#142138"/>
</linearGradient>
<linearGradient id="paint87_linear" x1="258.299" y1="213.647" x2="278.748" y2="213.647" gradientUnits="userSpaceOnUse">
<stop stop-color="#343A44"/>
<stop offset="0.301" stop-color="#232C3D"/>
<stop offset="0.639" stop-color="#172339"/>
<stop offset="1" stop-color="#142138"/>
</linearGradient>
<linearGradient id="paint88_linear" x1="262.889" y1="329.434" x2="283.629" y2="329.434" gradientUnits="userSpaceOnUse">
<stop stop-color="#343A44"/>
<stop offset="0.301" stop-color="#232C3D"/>
<stop offset="0.639" stop-color="#172339"/>
<stop offset="1" stop-color="#142138"/>
</linearGradient>
<linearGradient id="paint89_linear" x1="252.216" y1="194.556" x2="252.216" y2="253.157" gradientUnits="userSpaceOnUse">
<stop stop-color="#FC9D00"/>
<stop offset="1" stop-color="#F3510F"/>
</linearGradient>
<linearGradient id="paint90_linear" x1="248.343" y1="328.828" x2="271.974" y2="328.828" gradientUnits="userSpaceOnUse">
<stop stop-color="#343A44"/>
<stop offset="0.301" stop-color="#232C3D"/>
<stop offset="0.639" stop-color="#172339"/>
<stop offset="1" stop-color="#142138"/>
</linearGradient>
<linearGradient id="paint91_linear" x1="265.62" y1="231.334" x2="265.62" y2="298.496" gradientUnits="userSpaceOnUse">
<stop stop-color="#FC9D00"/>
<stop offset="1" stop-color="#F3510F"/>
</linearGradient>
<linearGradient id="paint92_linear" x1="271.357" y1="198.023" x2="271.357" y2="217.208" gradientUnits="userSpaceOnUse">
<stop stop-color="#FC9D00"/>
<stop offset="1" stop-color="#F3510F"/>
</linearGradient>
<linearGradient id="paint93_linear" x1="253.271" y1="380.329" x2="261.1" y2="380.329" gradientUnits="userSpaceOnUse">
<stop stop-color="#343A44"/>
<stop offset="0.301" stop-color="#232C3D"/>
<stop offset="0.639" stop-color="#172339"/>
<stop offset="1" stop-color="#142138"/>
</linearGradient>
<linearGradient id="paint94_linear" x1="272.49" y1="379.544" x2="280.387" y2="379.544" gradientUnits="userSpaceOnUse">
<stop stop-color="#343A44"/>
<stop offset="0.301" stop-color="#232C3D"/>
<stop offset="0.639" stop-color="#172339"/>
<stop offset="1" stop-color="#142138"/>
</linearGradient>
<linearGradient id="paint95_linear" x1="676.863" y1="316.297" x2="676.863" y2="442.982" gradientUnits="userSpaceOnUse">
<stop stop-color="#FC9D00"/>
<stop offset="1" stop-color="#F3510F"/>
</linearGradient>
<linearGradient id="paint96_linear" x1="676.235" y1="439.507" x2="676.235" y2="454.595" gradientUnits="userSpaceOnUse">
<stop stop-color="#FC9D00"/>
<stop offset="1" stop-color="#F3510F"/>
</linearGradient>
<clipPath id="clip0">
<rect width="776.667" height="466" fill="white"/>
</clipPath>
</defs>
</svg>
