<svg width="32" height="32" viewBox="0 0 32 32" fill="none" xmlns="http://www.w3.org/2000/svg">
<circle cx="16" cy="16" r="16" fill="#C4C4C4"/>
<path d="M9.66781 23.1729H22.2178C23.5011 23.1729 24.3011 21.7813 23.6595 20.6729L17.3845 9.83125C16.7428 8.72292 15.1428 8.72292 14.5011 9.83125L8.22614 20.6729C7.58448 21.7813 8.38448 23.1729 9.66781 23.1729ZM15.9428 17.3396C15.4845 17.3396 15.1095 16.9646 15.1095 16.5063V14.8396C15.1095 14.3813 15.4845 14.0063 15.9428 14.0063C16.4011 14.0063 16.7761 14.3813 16.7761 14.8396V16.5063C16.7761 16.9646 16.4011 17.3396 15.9428 17.3396ZM16.7761 20.6729H15.1095V19.0063H16.7761V20.6729Z" fill="#172339"/>
</svg>
